<svg width="180" height="79" viewBox="0 0 180 79" fill="none" xmlns="http://www.w3.org/2000/svg">
<path fill-rule="evenodd" clip-rule="evenodd" d="M54.5293 43.7296C54.1008 43.633 53.4822 43.3011 53.0064 42.9198C48.6761 38.7806 54.1953 33.9273 60.5716 31.1209V23.1272C62.0945 24.0315 62.8549 24.126 62.9505 24.2688L67.8039 19.4155L66.1854 15.3236C80.4598 10.3757 86.2164 8.47255 97.8252 6.52112L95.7331 4.618L99.1591 2.62036C106.963 5.23767 114.242 5.90356 113.006 12.4227C113.338 8.04509 107.865 6.33207 99.3975 3.95317L97.8263 4.952L100.919 7.521C87.0262 9.94821 78.4622 12.6128 68.3269 16.1333L69.6597 19.7484L64.6152 24.7446C65.4722 24.983 74.322 27.9806 83.6002 21.5097C83.6474 21.4625 83.7903 21.4142 83.7903 21.3186C83.4573 20.8428 82.886 20.4143 82.1256 19.7001C84.7901 19.8913 86.5504 22.2691 86.2175 24.7436H84.9802C85.1231 23.9821 84.933 23.0789 84.6 22.5075C77.5106 27.7411 69.1839 28.5025 62.0945 26.0291V32.2142C58.6202 33.4032 52.4834 37.2105 52.5306 40.8739C52.768 42.6341 53.6723 43.2538 54.5293 43.7296Z" fill="black"/>
<path fill-rule="evenodd" clip-rule="evenodd" d="M83.505 42.1112C75.8443 46.0603 68.5164 49.1533 57.0977 49.5819C42.3948 49.2951 40.1114 39.4939 47.1053 29.2641C53.6706 18.9398 64.1399 9.56599 80.8394 3.7138C85.5972 2.04805 92.7833 0.0504061 99.587 0.002093C109.436 -0.0924327 118.998 2.99961 118.382 12.3734C118.048 19.6057 107.629 29.8355 102.156 37.1633C99.7761 40.352 99.3969 42.3969 103.393 42.253C117.906 41.3035 131.181 36.259 143.362 31.0254C135.177 36.5919 92.2613 57.8592 92.0228 43.3484C92.0701 41.5409 92.9744 39.5894 94.3534 37.5435C95.7335 35.4975 97.6377 33.3087 99.5881 31.0727C102.491 27.7422 109.721 19.7485 112.148 14.9435C116.24 5.90365 107.057 5.42682 99.1595 2.62045L95.7335 4.6181L97.7784 6.52121C86.2169 8.47159 80.4592 10.3747 66.1848 15.3237L67.8033 19.4156L62.9499 24.2689C62.8543 24.1261 62.0939 24.0316 60.571 23.1273V31.121C54.1958 33.9274 48.6755 38.7807 53.0058 42.9199C53.4816 43.3012 54.1002 43.6341 54.5287 43.7297H54.4804C62.3323 48.1545 83.5523 42.1112 83.505 42.1112ZM34.5922 63.1421V59.4314H40.0169V63.1421H34.5922ZM34.8306 78.4143V65.1891H39.8741V78.4143H34.8306ZM148.215 66.7582C150.88 66.7582 153.069 68.947 153.069 71.6116C153.07 72.2493 152.945 72.881 152.702 73.4704C152.458 74.0598 152.101 74.5953 151.65 75.0462C151.199 75.4972 150.663 75.8546 150.074 76.0981C149.485 76.3415 148.853 76.4662 148.215 76.465C147.576 76.4703 146.943 76.3484 146.352 76.1064C145.76 75.8643 145.223 75.507 144.772 75.0553C144.32 74.6036 143.962 74.0664 143.72 73.4752C143.478 72.8839 143.357 72.2504 143.362 71.6116C143.361 70.9739 143.485 70.3422 143.729 69.7528C143.972 69.1634 144.33 68.6279 144.781 68.177C145.232 67.726 145.767 67.3686 146.356 67.1251C146.946 66.8817 147.578 66.757 148.215 66.7582ZM148.215 78.7483C152.117 78.7483 155.305 75.5607 155.305 71.6116C155.305 67.7098 152.117 64.5222 148.215 64.5222C144.266 64.5222 141.079 67.7098 141.079 71.6116C141.077 72.5491 141.261 73.4777 141.619 74.3442C141.977 75.2106 142.503 75.9978 143.166 76.6608C143.829 77.3237 144.616 77.8494 145.483 78.2076C146.349 78.5658 147.278 78.7495 148.215 78.7483ZM122.285 78.4143H124.521V76.3694H122.285V78.4143ZM139.27 76.7034C138.556 77.3209 137.081 78.7483 134.322 78.7483C130.706 78.7483 127.233 75.8926 127.233 71.6116C127.233 67.3779 130.706 64.5222 134.322 64.5222C136.939 64.5222 138.556 65.9495 139.27 66.5671C138.841 67.1374 138.461 68.3274 138.271 68.8504C136.939 67.0429 135.321 66.7582 134.322 66.7582C131.657 66.7582 129.469 68.9943 129.469 71.6116C129.469 74.2762 131.657 76.5122 134.322 76.5122C135.797 76.5122 137.225 75.8453 138.318 74.418C138.65 75.6079 139.032 76.2749 139.27 76.7034ZM158.492 78.4143V65.1891H160.49V67.0439C160.909 66.3929 161.481 65.8543 162.156 65.4748C162.881 65.0638 163.702 64.8502 164.536 64.8551C165.487 64.8551 166.296 65.0935 166.913 65.4748C167.533 65.9012 168.009 66.4736 168.247 67.1878C169.293 65.6638 170.675 64.8551 172.339 64.8551C173.624 64.8551 174.67 65.2364 175.337 65.9506C176.051 66.712 176.43 67.8054 176.43 69.3272V78.4143H174.194V70.0897C174.194 69.1854 174.099 68.5185 173.956 68.1394C173.818 67.7446 173.549 67.4089 173.194 67.1878C172.779 66.9336 172.301 66.8014 171.814 66.8065C170.912 66.8065 170.15 67.1384 169.531 67.7581C168.911 68.3778 168.579 69.3766 168.579 70.7083V78.4153H166.343V69.8041C166.343 68.8052 166.152 68.0438 165.82 67.568C165.439 67.0922 164.821 66.8065 164.01 66.8065C163.393 66.8065 162.823 66.9977 162.252 67.3296C161.727 67.6636 161.348 68.1394 161.11 68.7569C160.871 69.4239 160.728 70.3281 160.728 71.5654V78.4143H158.492ZM175.574 62.2861V59.7633H174.623V59.4314H176.906V59.7633H175.953V62.2861H175.574ZM177.24 62.2861V59.4304H177.81L178.524 61.4753C178.572 61.6664 178.619 61.8093 178.666 61.9038C178.666 61.8093 178.715 61.6192 178.81 61.428L179.477 59.4304H180V62.2861H179.619V59.9062L178.81 62.2861H178.431L177.621 59.8589V62.2861H177.24ZM112.815 76.465C112.292 77.1771 111.481 77.7495 110.435 78.1286C110.205 78.2301 109.966 78.3099 109.721 78.367C108.817 78.6075 107.818 78.701 106.677 78.701C105.012 78.701 103.727 78.367 102.823 77.6549C101.871 76.988 101.443 75.9892 101.443 74.7047C101.443 73.8949 101.634 73.1807 101.966 72.5632C102.3 71.9435 102.823 71.4204 103.49 70.9919C104.013 70.66 104.774 70.4216 105.726 70.2777C106.581 70.1832 107.915 70.0887 109.722 70.0887H112.719V69.8975V69.7064C112.719 68.9922 112.53 68.4691 112.101 68.0879C111.673 67.7087 111.055 67.5176 110.244 67.5176H109.721C109.054 67.5649 108.578 67.7087 108.199 67.8988C107.771 68.1373 107.485 68.5637 107.391 69.0888H102.299C102.441 67.6615 103.203 66.6133 104.488 65.8991C105.678 65.2815 107.438 64.9475 109.72 64.9003C109.911 64.853 110.101 64.853 110.34 64.853C112.813 64.853 114.67 65.2815 115.811 66.0902C117.001 66.9473 117.618 68.1845 117.618 69.9448V76.653C117.618 77.0342 117.618 77.3672 117.668 77.6045C117.715 77.8913 117.762 78.1769 117.859 78.4132H113.147C113.039 78.1529 112.959 77.8818 112.909 77.6045C112.852 77.3071 112.82 77.0052 112.814 76.7023V76.465H112.815ZM109.722 75.8453C110.579 75.7508 111.293 75.5134 111.817 75.0366C112.387 74.5608 112.719 73.7993 112.719 72.8005V72.5159H112.292C111.293 72.5159 110.435 72.5159 109.722 72.6104C109.108 72.6445 108.501 72.756 107.915 72.9423C107.105 73.2269 106.725 73.7038 106.725 74.3696C106.725 74.8454 106.916 75.2267 107.342 75.4651C107.771 75.7014 108.39 75.8443 109.245 75.8443L109.722 75.8453ZM94.4973 71.4215C94.4973 70.2315 94.1654 69.28 93.4985 68.5658C92.8316 67.8516 91.9766 67.5197 90.8812 67.5197H90.8339C89.644 67.5197 88.7397 67.8516 88.121 68.5658C87.5024 69.2327 87.1695 70.2788 87.1695 71.6116C87.1695 72.8961 87.5024 73.8949 88.121 74.6091C88.7859 75.3233 89.6439 75.6552 90.7867 75.6552H90.8339C91.9766 75.6552 92.8788 75.276 93.4985 74.5618C94.1644 73.8004 94.4973 72.7522 94.4973 71.4215ZM90.8329 65.0925C91.4504 64.9013 92.1646 64.8541 92.8778 64.8541C94.9721 64.8541 96.6378 65.4737 97.8257 66.711C99.065 67.9009 99.6826 69.5667 99.6826 71.7061C99.6826 73.8949 99.065 75.6079 97.9223 76.8452C96.7323 78.0824 95.0666 78.7021 92.9744 78.7021C92.2108 78.7021 91.4977 78.6076 90.8329 78.4153C90.4501 78.3234 90.0816 78.1799 89.7374 77.9889C88.7386 77.5131 87.9299 76.8462 87.2157 75.944V76.3232C87.2157 76.7044 87.2157 77.0374 87.1684 77.3693C87.1684 77.7033 87.1212 78.0835 87.0739 78.4153H81.9821C82.0294 77.845 82.0777 77.322 82.125 76.8462C82.1712 76.3232 82.1712 75.8474 82.1712 75.421V59.4325H87.2146V67.0922C87.9761 66.3308 88.8342 65.7605 89.7836 65.4265C90.1197 65.2836 90.4516 65.1397 90.8329 65.0925ZM73.9411 76.465C73.3708 77.1771 72.6083 77.7495 71.515 78.1286C71.2905 78.2442 71.0497 78.3246 70.8008 78.367C69.9448 78.6075 68.8977 78.701 67.8033 78.701C66.1375 78.701 64.8058 78.367 63.9015 77.6549C62.9972 76.988 62.5214 75.9892 62.5214 74.7047C62.5214 73.8949 62.7115 73.1807 63.0927 72.5632C63.4257 71.9435 63.9487 71.4204 64.6146 70.9919C65.1387 70.66 65.8518 70.4216 66.8034 70.2777C67.7077 70.1832 69.0395 70.0887 70.8008 70.0887H73.7983C73.7983 70.0393 73.7983 69.9448 73.8466 69.8975V69.7064C73.8466 68.9922 73.6082 68.4691 73.228 68.0879C72.7995 67.7087 72.1809 67.5176 71.3732 67.5176H70.8018C70.1832 67.5649 69.6602 67.7087 69.3272 67.8988C68.8515 68.1373 68.613 68.5637 68.5175 69.0888H63.3784C63.5696 67.6615 64.2827 66.6133 65.6145 65.8991C66.8034 65.2815 68.5164 64.9475 70.8008 64.9003C71.0392 64.853 71.2283 64.853 71.4194 64.853C73.9411 64.853 75.7487 65.2815 76.9386 66.0902C78.1286 66.9473 78.7 68.1845 78.7 69.9448V76.653C78.7 77.0342 78.7472 77.3672 78.7472 77.6045C78.7945 77.8913 78.8901 78.1769 78.9857 78.4132H74.2751C74.1333 78.1769 74.085 77.8923 74.0378 77.6045C73.9905 77.3199 73.9422 77.0342 73.9422 76.7023L73.9411 76.465ZM70.8018 75.8453C71.7051 75.7508 72.4193 75.5134 72.8961 75.0366C73.5137 74.5608 73.7993 73.7993 73.7993 72.8005V72.5159H73.4191C72.4193 72.5159 71.516 72.5159 70.8018 72.6104C70.2031 72.6437 69.6113 72.7553 69.0416 72.9423C68.2328 73.2269 67.8043 73.7038 67.8043 74.3696C67.8043 74.8454 68.0427 75.2267 68.4229 75.4651C68.8515 75.7014 69.4701 75.8443 70.3261 75.8443L70.8018 75.8453ZM55.5758 71.4215C55.5758 70.2315 55.2912 69.28 54.6243 68.5658C53.9574 67.8516 53.1014 67.5197 52.007 67.5197H51.9114C50.7697 67.5197 49.8654 67.8516 49.2468 68.5658C48.5809 69.2327 48.2953 70.2788 48.2953 71.6116C48.2953 72.8961 48.5809 73.8949 49.2468 74.6091C49.8644 75.3233 50.7697 75.6552 51.9114 75.6552C53.1003 75.6552 54.0046 75.276 54.6243 74.5618C55.2902 73.8004 55.5758 72.7522 55.5758 71.4215ZM51.9114 65.0925C52.5773 64.9013 53.2442 64.8541 54.0046 64.8541C56.0989 64.8541 57.7163 65.4737 58.9536 66.711C60.1425 67.9009 60.7622 69.5667 60.7622 71.7061C60.7622 73.8949 60.1908 75.6079 59.0008 76.8452C57.8119 78.0824 56.1945 78.7021 54.1002 78.7021C53.3387 78.7021 52.6245 78.6076 51.9114 78.4153C51.5343 78.3071 51.168 78.1643 50.817 77.9889C49.8644 77.5131 49.0084 76.8462 48.3425 75.944V76.3232C48.3425 76.7044 48.2953 77.0374 48.2953 77.3693C48.248 77.7033 48.2007 78.0835 48.1524 78.4153H43.0617C43.1525 77.8971 43.2002 77.3723 43.2045 76.8462C43.2518 76.3232 43.3001 75.8474 43.3001 75.421V59.4325H48.3436V67.0922C49.105 66.3308 49.961 65.7605 50.8653 65.4265C51.1983 65.2836 51.5785 65.1397 51.9114 65.0925ZM12.657 59.4314H16.2742L25.5513 78.4143H19.4618L17.7971 74.5618H7.47068L5.7104 78.4143H0L9.84958 59.4314H12.657ZM12.657 70.8985H16.0358L12.7998 63.6179L12.6559 63.9498L9.23096 70.8974L12.657 70.8985ZM26.4094 78.4143V59.4314H31.4518V78.4143H26.4094Z" fill="#D9783E"/>
</svg>
