<svg width="81" height="80" viewBox="0 0 81 80" fill="none" xmlns="http://www.w3.org/2000/svg">
<path d="M72.3882 19.1875L42.2007 1.8125C41.7007 1.5 41.0132 1.375 40.2632 1.375C39.5132 1.375 38.8257 1.5625 38.3257 1.8125L8.32568 19.25C7.26318 19.875 6.51318 21.4375 6.51318 22.625V57.4375C6.51318 58.125 6.63818 58.9375 7.13818 59.625L73.8882 20.875C73.5132 20.125 72.9507 19.5625 72.3882 19.1875Z" fill="#D26383"/>
<path d="M6.95068 59.5625C7.26318 60.0625 7.70068 60.5 8.13818 60.75L38.2632 78.1875C38.7632 78.5 39.4507 78.625 40.2007 78.625C40.9507 78.625 41.6382 78.4375 42.1382 78.1875L72.1382 60.75C73.2007 60.125 73.9507 58.5625 73.9507 57.375V22.5625C73.9507 22 73.8882 21.375 73.5757 20.8125L6.95068 59.5625Z" fill="#9C033A"/>
<path d="M53.5757 47.5625C50.9507 52.1875 45.9507 55.3125 40.2632 55.3125C31.8257 55.3125 24.9507 48.4375 24.9507 40C24.9507 31.5625 31.8257 24.6875 40.2632 24.6875C45.9507 24.6875 50.9507 27.8125 53.5757 32.5L61.7007 27.8125C57.4507 20.375 49.4507 15.3125 40.2632 15.3125C26.6382 15.3125 15.5757 26.375 15.5757 40C15.5757 53.625 26.6382 64.6875 40.2632 64.6875C49.3882 64.6875 57.3882 59.6875 61.6382 52.3125L53.5757 47.5625Z" fill="white"/>
<path d="M51.5757 38.625H54.8257V35.3125H57.5757V38.625H60.8882V41.375H57.5757V44.625H54.8257V41.375H51.5757V38.625ZM63.1382 38.625H66.3882V35.3125H69.1382V38.625H72.4507V41.375H69.1382V44.625H66.3882V41.375H63.1382V38.625Z" fill="white"/>
</svg>
