<svg width="80" height="81" viewBox="0 0 80 81" fill="none" xmlns="http://www.w3.org/2000/svg">
<path d="M77.9998 32.8264C75.3123 31.2639 71.7497 31.0764 68.7497 31.9514C68.3747 28.7014 66.2497 25.8889 63.7497 23.8889L62.7497 23.0764L61.8747 24.0764C60.1872 26.0139 59.6872 29.2639 59.9372 31.7639C60.1247 33.5764 60.6872 35.4514 61.8122 36.9514C60.9372 37.4514 59.9997 38.1389 59.1247 38.4514C57.3747 39.0764 55.4372 39.7014 53.5622 39.7014H49.3747V30.8889H41.2497V15.2639H31.8748V22.7639H16.2497V30.8889H8.12475V39.6389H1.12475L0.99975 40.5764C0.68725 44.5764 1.18725 48.4514 2.87475 52.1389L3.56225 53.5139L3.62475 53.6389C8.56225 62.0139 17.1872 65.5139 26.6247 65.5139C44.8748 65.5139 59.9372 57.3264 66.8122 40.1389C71.4372 40.3889 76.1872 39.0139 78.4372 34.5764L78.9997 33.4514L77.9998 32.8264V32.8264ZM17.4997 24.6389H23.7498V31.5139H17.4997V24.6389ZM25.6872 52.2639C25.6872 53.3264 24.8123 54.2014 23.7498 54.2014C22.6873 54.2014 21.8123 53.3264 21.8123 52.2639C21.8123 51.2014 22.6873 50.3264 23.7498 50.3264C24.8123 50.3889 25.6872 51.2014 25.6872 52.2639ZM17.4997 32.7639H23.7498V39.6389H17.4997V32.7639ZM9.37475 32.7639H16.2497V39.6389H9.37475V32.7639ZM26.6873 64.1389C16.8123 64.0764 11.4997 60.7639 7.12475 56.3889C8.43725 56.4514 9.68725 56.5139 10.8122 56.5139C11.8122 56.5139 12.8122 56.5139 13.7497 56.4514C16.1872 56.3264 18.3122 56.0139 20.0622 55.5139C21.4997 58.8264 24.1247 61.8889 28.8122 64.1389H26.6873ZM31.8748 39.6389H24.9998V32.7639H31.8748V39.6389ZM31.8748 31.5139H24.9998V24.6389H31.8748V31.5139ZM39.9998 39.6389H33.1248V32.7639H39.9998V39.6389ZM39.9998 31.5139H33.1248V24.6389H39.9998V31.5139ZM39.9998 23.3889H33.1248V16.5139H39.9998V23.3889ZM48.1247 39.6389H41.2497V32.7639H48.1247V39.6389ZM24.2498 51.0139C24.1248 50.9514 23.9373 50.8889 23.7498 50.8889C22.9998 50.8889 22.3748 51.5139 22.3748 52.2639C22.3748 53.0139 22.9998 53.6389 23.7498 53.6389C24.4998 53.6389 25.1248 53.0139 25.1248 52.2639C25.1248 52.0764 25.0623 51.8889 24.9998 51.7639C24.8748 51.9514 24.7498 52.0764 24.4998 52.0764C24.1873 52.0764 23.9373 51.8264 23.9373 51.5139C23.9998 51.2639 24.1248 51.0764 24.2498 51.0139V51.0139Z" fill="#019BC6"/>
</svg>
