<svg width="80" height="81" viewBox="0 0 80 81" fill="none" xmlns="http://www.w3.org/2000/svg">
<path d="M28.4375 80.625C35.875 80.625 41.875 74.625 41.875 67.1875V53.75H28.4375C21 53.75 15 59.75 15 67.1875C15 74.625 21 80.625 28.4375 80.625Z" fill="#0ACF83"/>
<path d="M15 40.3125C15 32.875 21 26.875 28.4375 26.875H41.875V53.75H28.4375C21 53.75 15 47.75 15 40.3125Z" fill="#A259FF"/>
<path d="M15 13.4375C15 6 21 0 28.4375 0H41.875V26.875H28.4375C21 26.875 15 20.875 15 13.4375Z" fill="#F24E1E"/>
<path d="M41.875 0H55.3125C62.75 0 68.75 6 68.75 13.4375C68.75 20.875 62.75 26.875 55.3125 26.875H41.875V0Z" fill="#FF7262"/>
<path d="M68.75 40.3125C68.75 47.75 62.75 53.75 55.3125 53.75C47.875 53.75 41.875 47.75 41.875 40.3125C41.875 32.875 47.875 26.875 55.3125 26.875C62.75 26.875 68.75 32.875 68.75 40.3125Z" fill="#1ABCFE"/>
</svg>
