<svg width="81" height="80" viewBox="0 0 81 80" fill="none" xmlns="http://www.w3.org/2000/svg">
<path fill-rule="evenodd" clip-rule="evenodd" d="M7.23574 34.2682C7.08386 34.2682 7.04636 34.1919 7.12199 34.0788L7.91761 33.0557C7.99261 32.9419 8.18261 32.8663 8.33386 32.8663H21.857C22.0089 32.8663 22.0464 32.98 21.9707 33.0938L21.327 34.0788C21.2514 34.1919 21.062 34.3057 20.9482 34.3057L7.23574 34.2682ZM1.51574 37.7525C1.36449 37.7525 1.32636 37.6775 1.40199 37.5632L2.19761 36.5407C2.27324 36.4269 2.46261 36.3513 2.61449 36.3513H19.887C20.0382 36.3513 20.1145 36.465 20.0764 36.5788L19.7732 37.4875C19.7357 37.6394 19.5839 37.715 19.4326 37.715L1.51574 37.7525ZM10.682 41.2375C10.5307 41.2375 10.4932 41.1238 10.5689 41.01L11.0989 40.0632C11.1751 39.9494 11.3264 39.8363 11.4782 39.8363H19.0532C19.2051 39.8363 19.2807 39.9494 19.2807 40.1013L19.2057 41.01C19.2057 41.1619 19.0539 41.2757 18.9401 41.2757L10.682 41.2375ZM50.0007 33.5863C47.6139 34.1925 45.9851 34.6469 43.637 35.2525C43.0682 35.4044 43.0307 35.4419 42.5382 34.8738C41.9701 34.23 41.5532 33.8132 40.7582 33.4344C38.3714 32.2607 36.0607 32.6013 33.902 34.0032C31.3264 35.6694 30.0007 38.1313 30.0382 41.1994C30.0757 44.23 32.1595 46.73 35.152 47.1469C37.7276 47.4875 39.887 46.5782 41.5914 44.6469C41.932 44.23 42.2351 43.7757 42.6139 43.245H35.3032C34.5082 43.245 34.3189 42.7525 34.5839 42.1088C35.0764 40.9344 35.9851 38.965 36.5151 37.98C36.6295 37.7525 36.8945 37.3738 37.4626 37.3738H51.2501C51.1751 38.3969 51.1751 39.4194 51.0232 40.4425C50.6064 43.1694 49.5839 45.6694 47.917 47.8663C45.1895 51.465 41.6295 53.6994 37.1214 54.3057C33.4095 54.7982 29.9626 54.0782 26.9326 51.8057C24.1295 49.6844 22.5389 46.8813 22.122 43.3969C21.6295 39.2682 22.8414 35.5557 25.3414 32.2982C28.0307 28.7757 31.5914 26.5407 35.9476 25.745C39.5082 25.1013 42.917 25.5182 45.9851 27.6013C47.9926 28.9269 49.432 30.745 50.3789 32.9419C50.6064 33.2832 50.4551 33.4725 50.0001 33.5857L50.0007 33.5863Z" fill="#00ACD7"/>
<path d="M62.5381 54.5331C59.0912 54.4568 55.9469 53.4725 53.2956 51.1993C51.0606 49.2681 49.6594 46.8056 49.205 43.8887C48.5231 39.6087 49.6969 35.8206 52.2731 32.45C55.0381 28.8131 58.3712 26.9193 62.8794 26.1237C66.7425 25.4425 70.3794 25.8212 73.6744 28.0556C76.6669 30.1012 78.5225 32.8662 79.015 36.5025C79.6587 41.6162 78.1819 45.7831 74.6587 49.3437C72.1587 51.8812 69.0906 53.4725 65.5681 54.1918C64.5456 54.3812 63.5225 54.4193 62.5381 54.5331ZM71.5531 39.23C71.5156 38.7375 71.5156 38.3587 71.4394 37.98C70.7581 34.23 67.3106 32.1087 63.7125 32.9425C60.1894 33.7375 57.9169 35.9725 57.0837 39.5331C56.4019 42.4875 57.8412 45.48 60.5681 46.6918C62.6519 47.6012 64.735 47.4875 66.7425 46.465C69.735 44.9118 71.3637 42.4875 71.5531 39.23Z" fill="#00ACD7"/>
</svg>
