<svg width="80" height="80" viewBox="0 0 80 80" fill="none" xmlns="http://www.w3.org/2000/svg">
<path d="M65.4558 25.5554L76.3598 49.7806L60.9426 76.1177L23.9106 45.9451L42.8489 27.6914L65.4558 25.5554Z" fill="url(#paint0_linear_83_912)"/>
<path d="M49.7129 48.8537L60.9426 76.1189L26.7312 64.3589L23.9106 45.9463L49.7129 48.8537Z" fill="#BB4EFC"/>
<path d="M27.7497 10.7805L43.4937 18.8491L29.3246 61.7519L0.788574 61.4548L6.91886 47.8605L0.788574 30.4879L27.7497 10.7805Z" fill="#078EFC"/>
<path d="M47.5006 0.547363L54.9463 25.8845L0.788574 30.4879L18.0126 0.547363H47.5006Z" fill="url(#paint1_linear_83_912)"/>
<path d="M76.36 16.593L44.6754 24.113L0.788574 61.4547L29.0949 76.1187L53.6834 50.769L76.36 16.593Z" fill="url(#paint2_linear_83_912)"/>
<path d="M13.3838 13.1428H63.7644V63.5234H13.3838V13.1428Z" fill="black"/>
<path d="M18.4214 55.2102H37.314V58.2331H18.4214V55.2102Z" fill="white"/>
<path d="M16.6933 29.577V29.5153C16.4876 23.4639 21.2271 18.3908 27.2785 18.1862C27.3813 18.1828 27.4831 18.1805 27.5859 18.1805C30.6031 18.0262 33.5516 19.1119 35.7482 21.1862L32.8682 24.8502C31.4385 23.3965 29.4751 22.593 27.4362 22.6273C23.9128 22.8856 21.2533 25.929 21.4705 29.4548V29.5165C21.1756 33.049 23.8008 36.1508 27.3333 36.4456C27.4762 36.457 27.6202 36.465 27.7642 36.4673C29.3036 36.513 30.8156 36.0502 32.0671 35.1519V32.0205H27.4671V27.857H36.4899V37.3748C34.0751 39.609 30.9059 40.8502 27.6156 40.8525C21.7162 40.993 16.8202 36.3233 16.6796 30.4239C16.6739 30.1416 16.6785 29.8593 16.6933 29.577Z" fill="white"/>
<path d="M38.4097 29.577V29.5153C38.2486 23.4182 43.06 18.345 49.1583 18.1839C55.2566 18.0227 60.3286 22.8342 60.4897 28.9324C60.4943 29.1062 60.4943 29.281 60.4908 29.4547V29.5164C60.652 35.6136 55.8406 40.6867 49.7423 40.8479C43.6451 41.009 38.572 36.1976 38.4108 30.0993C38.4063 29.9256 38.4063 29.7519 38.4097 29.577ZM55.7137 29.577V29.5153C55.9263 25.9267 53.1891 22.8467 49.6006 22.6342C49.54 22.6307 49.4806 22.6284 49.42 22.6262C45.8817 22.7153 43.0863 25.6547 43.1754 29.193C43.1777 29.2799 43.1811 29.3667 43.1868 29.4547V29.5164C42.9743 33.105 45.7114 36.185 49.3 36.3976C49.3606 36.401 49.42 36.4033 49.4806 36.4056C53.0188 36.3164 55.8143 33.377 55.7251 29.8387C55.7228 29.7519 55.7194 29.6639 55.7137 29.577Z" fill="white"/>
<defs>
<linearGradient id="paint0_linear_83_912" x1="61.9465" y1="31.2699" x2="40.5644" y2="63.8717" gradientUnits="userSpaceOnUse">
<stop offset="0.174" stop-color="#078EFC"/>
<stop offset="0.204" stop-color="#118AFC"/>
<stop offset="0.435" stop-color="#5971FC"/>
<stop offset="0.627" stop-color="#8E5EFC"/>
<stop offset="0.77" stop-color="#AF52FC"/>
<stop offset="0.849" stop-color="#BB4EFC"/>
</linearGradient>
<linearGradient id="paint1_linear_83_912" x1="8.26815" y1="34.4395" x2="51.6306" y2="1.8163" gradientUnits="userSpaceOnUse">
<stop offset="0.174" stop-color="#078EFC"/>
<stop offset="0.204" stop-color="#118AFC"/>
<stop offset="0.435" stop-color="#5971FC"/>
<stop offset="0.627" stop-color="#8E5EFC"/>
<stop offset="0.77" stop-color="#AF52FC"/>
<stop offset="0.849" stop-color="#BB4EFC"/>
</linearGradient>
<linearGradient id="paint2_linear_83_912" x1="11.2878" y1="66.5644" x2="65.8021" y2="31.5341" gradientUnits="userSpaceOnUse">
<stop stop-color="#078EFC"/>
<stop offset="0.106" stop-color="#15A7D3"/>
<stop offset="0.228" stop-color="#23BFAA"/>
<stop offset="0.348" stop-color="#2DD28B"/>
<stop offset="0.463" stop-color="#35DF74"/>
<stop offset="0.573" stop-color="#39E767"/>
<stop offset="0.67" stop-color="#3BEA62"/>
</linearGradient>
</defs>
</svg>
