<svg width="80" height="80" viewBox="0 0 80 80" fill="none" xmlns="http://www.w3.org/2000/svg">
<g clip-path="url(#clip0_83_911)">
<path d="M20.2283 62.3999L0.914062 47.0857L10.5141 29.2571L38.0569 39.9999L20.2283 62.3999Z" fill="url(#paint0_linear_83_911)"/>
<path d="M80.0002 21.3714L78.5145 67.6571L47.7716 79.9999L29.2573 68.1142L56.343 39.9999L44.4573 14.0571L55.0859 1.25708L80.0002 21.3714Z" fill="url(#paint1_linear_83_911)"/>
<path d="M79.9999 21.3714L55.657 50.1714L44.457 14.0571L55.0856 1.25708L79.9999 21.3714Z" fill="url(#paint2_linear_83_911)"/>
<path d="M38.5143 66.4L6.4 78.0572L11.5429 60L18.2857 37.8286L0 31.6571L11.5429 0L36.6857 3.08571L61.3714 31.3143L38.5143 66.4Z" fill="url(#paint3_linear_83_911)"/>
<path d="M15.6572 15.4285H65.0286V64.7999H15.6572V15.4285Z" fill="black"/>
<path d="M20.2285 55.5427H38.7428V58.6284H20.2285V55.5427Z" fill="white"/>
<path d="M33.6002 25.5998V21.8284H23.3145V25.5998H26.2859V38.5141H23.3145V42.2855H33.6002V38.5141H30.743V25.5998H33.6002Z" fill="white"/>
<path d="M43.4289 42.6284C41.8289 42.6284 40.4574 42.2855 39.4289 41.7141C38.4003 41.1427 37.486 40.3427 36.8003 39.5427L39.6574 36.3427C40.2289 37.0284 40.8003 37.4855 41.3717 37.8284C41.9432 38.1712 42.6289 38.3998 43.3146 38.3998C44.1146 38.3998 44.8003 38.1712 45.3717 37.5998C45.8289 37.0284 46.0574 36.2284 46.0574 34.9712V21.8284H50.6289V35.1998C50.6289 36.4569 50.5146 37.4855 50.1717 38.3998C49.8289 39.3141 49.3717 39.9998 48.686 40.6855C48.1146 41.2569 47.3146 41.8284 46.4003 42.0569C45.486 42.3998 44.5717 42.6284 43.4289 42.6284Z" fill="white"/>
</g>
<defs>
<linearGradient id="paint0_linear_83_911" x1="0.902634" y1="45.8159" x2="38.0763" y2="45.8159" gradientUnits="userSpaceOnUse">
<stop offset="0.258" stop-color="#F97A12"/>
<stop offset="0.459" stop-color="#B07B58"/>
<stop offset="0.724" stop-color="#577BAE"/>
<stop offset="0.91" stop-color="#1E7CE5"/>
<stop offset="1" stop-color="#087CFA"/>
</linearGradient>
<linearGradient id="paint1_linear_83_911" x1="29.4482" y1="28.4342" x2="90.7705" y2="62.3657" gradientUnits="userSpaceOnUse">
<stop stop-color="#F97A12"/>
<stop offset="0.072" stop-color="#CB7A3E"/>
<stop offset="0.154" stop-color="#9E7B6A"/>
<stop offset="0.242" stop-color="#757B91"/>
<stop offset="0.334" stop-color="#537BB1"/>
<stop offset="0.432" stop-color="#387CCC"/>
<stop offset="0.538" stop-color="#237CE0"/>
<stop offset="0.655" stop-color="#147CEF"/>
<stop offset="0.792" stop-color="#0B7CF7"/>
<stop offset="1" stop-color="#087CFA"/>
</linearGradient>
<linearGradient id="paint2_linear_83_911" x1="72.2605" y1="49.0457" x2="55.1885" y2="-1.96463" gradientUnits="userSpaceOnUse">
<stop stop-color="#FE315D"/>
<stop offset="0.078" stop-color="#CB417E"/>
<stop offset="0.16" stop-color="#9E4E9B"/>
<stop offset="0.247" stop-color="#755BB4"/>
<stop offset="0.339" stop-color="#5365CA"/>
<stop offset="0.436" stop-color="#386DDB"/>
<stop offset="0.541" stop-color="#2374E9"/>
<stop offset="0.658" stop-color="#1478F3"/>
<stop offset="0.794" stop-color="#0B7BF8"/>
<stop offset="1" stop-color="#087CFA"/>
</linearGradient>
<linearGradient id="paint3_linear_83_911" x1="12.2514" y1="18.8263" x2="63.456" y2="103.52" gradientUnits="userSpaceOnUse">
<stop stop-color="#FE315D"/>
<stop offset="0.04" stop-color="#F63462"/>
<stop offset="0.104" stop-color="#DF3A71"/>
<stop offset="0.167" stop-color="#C24383"/>
<stop offset="0.291" stop-color="#AD4A91"/>
<stop offset="0.55" stop-color="#755BB4"/>
<stop offset="0.917" stop-color="#1D76ED"/>
<stop offset="1" stop-color="#087CFA"/>
</linearGradient>
<clipPath id="clip0_83_911">
<rect width="80" height="80" fill="white"/>
</clipPath>
</defs>
</svg>
