<svg width="80" height="80" viewBox="0 0 80 80" fill="none" xmlns="http://www.w3.org/2000/svg">
<path d="M29.7608 61.325C29.7608 61.325 26.7814 63.0588 31.8839 63.6438C38.0664 64.35 41.2258 64.2488 48.0371 62.9613C48.0371 62.9613 49.8314 64.0832 52.3327 65.0557C37.0583 71.5994 17.7652 64.6763 29.7608 61.325ZM27.8933 52.7844C27.8933 52.7844 24.5508 55.2588 29.6577 55.7875C36.2621 56.4694 41.4764 56.525 50.5039 54.7875C50.5039 54.7875 51.7496 56.0532 53.7114 56.7444C35.2477 62.1444 14.6827 57.1694 27.8933 52.7844Z" fill="#0074BD"/>
<path d="M43.6261 38.2944C47.3917 42.6287 42.6386 46.5256 42.6386 46.5256C42.6386 46.5256 52.1942 41.5937 47.8067 35.415C43.7073 29.6556 40.5648 26.795 57.5786 16.9275C57.5786 16.9281 30.8717 23.5962 43.6261 38.2944Z" fill="#EA2D2E"/>
<path d="M63.827 67.6431C63.827 67.6431 66.0326 69.4619 61.397 70.8675C52.5833 73.5375 24.7058 74.3425 16.9633 70.9744C14.1814 69.7631 19.4001 68.0837 21.042 67.7294C22.7539 67.3587 23.7314 67.4262 23.7314 67.4262C20.6358 65.2469 3.72326 71.7075 15.142 73.5606C46.2801 78.6081 71.9026 71.2875 63.827 67.6431ZM31.1951 43.9337C31.1951 43.9337 17.0164 47.3019 26.1745 48.5262C30.042 49.0437 37.7483 48.925 44.9314 48.3225C50.8001 47.8294 56.6895 46.7762 56.6895 46.7762C56.6895 46.7762 54.622 47.6631 53.1245 48.6844C38.7233 52.4725 10.9095 50.7081 18.9176 46.8356C25.6876 43.5612 31.1951 43.9337 31.1951 43.9337ZM56.6308 58.1506C71.2689 50.5462 64.5001 43.2381 59.7758 44.2225C58.6208 44.4631 58.1026 44.6725 58.1026 44.6725C58.1026 44.6725 58.5326 43.9981 59.3526 43.7081C68.6983 40.4237 75.8845 53.3975 56.3383 58.5362C56.3383 58.535 56.5626 58.3319 56.6308 58.1506Z" fill="#0074BD"/>
<path d="M47.8071 0.991943C47.8071 0.991943 55.9121 9.10194 40.1177 21.5688C27.4515 31.5726 37.2296 37.2751 40.1134 43.7932C32.719 37.1226 27.2952 31.2494 30.9334 25.7838C36.2759 17.7626 51.0765 13.8719 47.8071 0.991943Z" fill="#EA2D2E"/>
<path d="M32.6339 78.7632C46.6814 79.6614 68.2589 78.2632 68.7695 71.6157C68.7695 71.6157 67.7876 74.1357 57.1589 76.1351C45.1676 78.3926 30.3751 78.1295 21.6045 76.6813C21.6045 76.682 23.4014 78.1695 32.6339 78.7632Z" fill="#0074BD"/>
</svg>
