<svg width="80" height="81" viewBox="0 0 80 81" fill="none" xmlns="http://www.w3.org/2000/svg">
<path d="M7.77574 25.5939C7.37221 25.1888 6.81236 24.9392 6.18827 24.9392C5.56574 24.9392 5.0102 25.1888 4.61177 25.5939H4.60158C4.19923 25.9963 3.94967 26.5577 3.94967 27.1778C3.94967 27.8015 4.19923 28.3594 4.60158 28.7579L4.61177 28.7688C5.0102 29.1704 5.56574 29.4164 6.18827 29.4164C6.81236 29.4164 7.37221 29.1704 7.77574 28.7688L7.78044 28.7579C8.18436 28.3594 8.43078 27.8015 8.43078 27.1778C8.43078 26.5577 8.18436 25.9963 7.78044 25.5939H7.77574ZM6.18827 56.2385C6.81236 56.2385 7.37221 55.9842 7.77574 55.5866L7.78044 55.5748C8.18436 55.1779 8.43078 54.6165 8.43078 53.9995C8.43078 53.3758 8.18436 52.8171 7.78044 52.4128H7.77574C7.37221 52.0038 6.81236 51.7566 6.18827 51.7566C5.56574 51.7566 5.0102 52.0038 4.61177 52.4128H4.60158C4.19923 52.8171 3.94967 53.3758 3.94967 53.9995C3.94967 54.6165 4.19923 55.1779 4.60158 55.5748L4.61177 55.5866C5.0102 55.9842 5.56574 56.2385 6.18827 56.2385ZM18.3854 49.4557C18.9397 49.31 19.4416 48.9542 19.7484 48.4159L19.7895 48.3372C20.0622 47.8275 20.1119 47.2383 19.9662 46.7152C19.8193 46.157 19.4596 45.6618 18.9225 45.3534L18.8908 45.3323C18.3674 45.0447 17.7719 44.982 17.2242 45.1313C16.6674 45.2704 16.1671 45.641 15.8623 46.1746C15.5536 46.705 15.4894 47.3146 15.6371 47.8757C15.7895 48.4277 16.1464 48.9264 16.6804 49.2383H16.6835C17.2187 49.5458 17.8236 49.601 18.3854 49.4557ZM8.48446 38.2948C7.89679 37.7087 7.08582 37.3412 6.18827 37.3412C5.29189 37.3412 4.48327 37.7087 3.89678 38.2948C3.31225 38.8801 2.95182 39.6876 2.95182 40.5851C2.95182 41.4827 3.31225 42.2937 3.89678 42.8856C4.48327 43.4682 5.29189 43.8322 6.18827 43.8322C7.08582 43.8322 7.89679 43.4682 8.48446 42.8856C9.07055 42.2937 9.43098 41.4827 9.43098 40.5851C9.43098 39.6876 9.07055 38.8801 8.48446 38.2948ZM7.19317 34.4793C8.49621 34.694 9.66605 35.3181 10.5605 36.2188H10.5671C10.7093 36.3606 10.8476 36.517 10.9765 36.6729L13.2116 35.38C12.9111 34.4719 12.897 33.5226 13.1387 32.6321C13.4572 31.44 14.2302 30.3728 15.3891 29.704L15.4267 29.6801C16.573 29.0317 17.8757 28.8966 19.0514 29.2151C20.2424 29.5344 21.3166 30.3109 21.9854 31.4678V31.4713C22.651 32.6219 22.7858 33.9422 22.4684 35.1309C22.1515 36.3226 21.3758 37.3973 20.2181 38.0621L19.9129 38.2423H19.882C18.8112 38.752 17.634 38.832 16.5527 38.5471C15.6649 38.3121 14.8508 37.8161 14.213 37.1128L11.981 38.4022C12.2377 39.0807 12.3795 39.8122 12.3795 40.5851C12.3795 41.3542 12.2377 42.0962 11.981 42.7783L14.213 44.0641C14.8508 43.3499 15.6649 42.8653 16.5527 42.6294C17.744 42.3039 19.0643 42.4422 20.2181 43.1148L20.2921 43.1493V43.1528C21.4067 43.8286 22.155 44.8715 22.4684 46.0496C22.7858 47.2312 22.651 48.5523 21.9854 49.7053L21.945 49.7856L21.9403 49.7789C21.272 50.8904 20.2181 51.6434 19.0549 51.9619C17.862 52.2765 16.5413 52.1421 15.3891 51.4792V51.4702C14.2302 50.8003 13.4572 49.7307 13.1387 48.5409C12.897 47.6543 12.9111 46.705 13.2116 45.7973L10.9765 44.5076C10.8476 44.6635 10.7093 44.8128 10.5671 44.9546L10.5605 44.9617C9.66605 45.8592 8.49621 46.4829 7.19317 46.6906V49.2731C8.12167 49.4671 8.95302 49.9313 9.60415 50.5828L9.60767 50.5895C10.4805 51.4584 11.0212 52.669 11.0212 53.9995C11.0212 55.326 10.4805 56.5296 9.60767 57.4028L9.60415 57.4165C8.72501 58.2894 7.51912 58.8301 6.18827 58.8301C4.86446 58.8301 3.65545 58.2894 2.77826 57.4165H2.77474V57.4028C1.90108 56.5296 1.35926 55.326 1.35926 53.9995C1.35926 52.669 1.90108 51.4584 2.77474 50.5895V50.5828H2.77826C3.429 49.9313 4.26191 49.4671 5.18689 49.2731V46.6906C3.88424 46.4829 2.71636 45.8592 1.82351 44.9617L1.81411 44.9546C0.699118 43.8357 0.000976562 42.2937 0.000976562 40.5851C0.000976562 38.8801 0.699118 37.3381 1.81411 36.2188H1.82351C2.71636 35.3181 3.88424 34.694 5.18689 34.4793V31.9077C4.26191 31.7071 3.429 31.2429 2.77826 30.5949H2.77474V30.5878C1.90108 29.7111 1.35926 28.5087 1.35926 27.1778C1.35926 25.854 1.90108 24.6411 2.77474 23.7678L2.77826 23.7643C3.65545 22.8879 4.86446 22.3477 6.18827 22.3477C7.51912 22.3477 8.72501 22.8879 9.60415 23.7643V23.7678H9.60767C10.4805 24.6411 11.0212 25.854 11.0212 27.1778C11.0212 28.5087 10.4805 29.7111 9.60767 30.5878L9.60415 30.5949C8.95302 31.2429 8.12167 31.7071 7.19317 31.9077V34.4793ZM19.7484 32.7642L19.7292 32.7359C19.4212 32.2164 18.9292 31.8701 18.3854 31.7209C17.8236 31.5716 17.2187 31.6343 16.6804 31.943H16.6835C16.1464 32.2478 15.7871 32.7461 15.6371 33.3048C15.4894 33.8592 15.5536 34.4719 15.8623 35.0059L15.8729 35.0196C16.182 35.5465 16.6745 35.8999 17.2242 36.0421C17.7766 36.1984 18.392 36.1322 18.9225 35.8235L18.9511 35.8098C19.4733 35.498 19.8212 35.0059 19.9662 34.4652C20.1143 33.9073 20.0551 33.2977 19.7484 32.7642Z" fill="#1A1919"/>
<path d="M29.6655 33.5194H32.1596V41.1323L35.7561 37.1543H38.7465L34.4044 41.7631L38.7645 47.6052H35.9088L32.1596 42.3868V47.6052H29.6655V33.5194ZM41.6436 42.4248C41.6436 43.7212 42.5761 45.606 44.8225 45.606C46.2125 45.606 47.1273 44.8816 47.6017 43.9324C47.8501 43.4716 47.9645 42.9792 48.0029 42.4667C48.0202 41.9707 47.9265 41.4552 47.7157 40.9972C47.2785 40.0099 46.3081 39.1539 44.8041 39.1539C42.7872 39.1539 41.6436 40.7891 41.6436 42.4076V42.4248ZM50.477 47.6052H47.9818V46.1016C47.3177 47.3177 45.9273 47.9281 44.4609 47.9281C41.11 47.9281 39.15 45.3185 39.15 42.3696C39.15 39.0775 41.5292 36.8318 44.4609 36.8318C46.3645 36.8318 47.5253 37.8407 47.9818 38.6791V37.1543H50.477V47.6052ZM53.3009 39.0775H52.0084V37.1543H53.3009V36.5654C53.3009 33.4602 55.6621 33.273 57.4525 33.2522V35.1719C56.8229 35.1719 55.7961 35.1719 55.7961 36.641V37.1543H57.4525V39.0775H55.7961V47.6052H53.3009V39.0775ZM59.1485 33.5194H61.6418V41.1323L65.239 37.1543H68.2294L63.8874 41.7631L68.2467 47.6052H65.391L61.6418 42.3868V47.6052H59.1485V33.5194ZM71.1266 42.4248C71.1266 43.7212 72.0586 45.606 74.3055 45.606C75.6935 45.606 76.6083 44.8816 77.0835 43.9324C77.3327 43.4716 77.4475 42.9792 77.4851 42.4667C77.5023 41.9707 77.4087 41.4552 77.1975 40.9972C76.7611 40.0099 75.7907 39.1539 74.2871 39.1539C72.2698 39.1539 71.1266 40.7891 71.1266 42.4076V42.4248ZM79.9592 47.6052H77.4647V46.1016C76.7987 47.3177 75.4095 47.9281 73.9439 47.9281C70.593 47.9281 68.6345 45.3185 68.6345 42.3696C68.6345 39.0775 71.013 36.8318 73.9439 36.8318C75.8463 36.8318 77.0083 37.8407 77.4647 38.6791V37.1543H79.9592V47.6052Z" fill="#1A1919"/>
</svg>
