<svg width="80" height="81" viewBox="0 0 80 81" fill="none" xmlns="http://www.w3.org/2000/svg">
<path d="M73.0925 61.3932C68.8032 61.2764 65.5275 61.6757 62.7269 62.8564C61.9313 63.192 60.6613 63.2014 60.5313 64.1982C60.9688 64.6563 61.0369 65.3414 61.3844 65.9051C62.0532 66.9864 63.1819 68.4376 64.1894 69.1976C65.2907 70.0288 66.425 70.917 67.605 71.6364C69.7038 72.9157 72.0469 73.647 74.0675 74.9288C75.2588 75.6851 76.4419 76.637 77.6038 77.4895C78.1788 77.9113 78.5644 78.567 79.3113 78.8314V78.7101C78.9188 78.2101 78.8175 77.5238 78.4575 77.002L76.8719 75.4164C75.3219 73.3589 73.3538 71.5513 71.2619 70.0507C69.5938 68.8532 65.8607 67.2357 65.165 65.2951L65.0432 65.1732C66.2257 65.0395 67.61 64.612 68.7019 64.3189C70.5357 63.8276 72.1744 63.9545 74.0675 63.4657L76.6282 62.7339V62.2463C75.6713 61.2645 74.9888 59.9645 73.9457 59.0757C71.2144 56.7507 68.2344 54.4276 65.1657 52.4901C63.4632 51.4163 61.36 50.7182 59.5557 49.8076C58.9488 49.5007 57.8825 49.3414 57.4819 48.8314C56.5338 47.6239 56.0182 46.0926 55.2875 44.6857C53.7569 41.7376 52.2538 38.5182 50.8975 35.4164C49.9725 33.3014 49.3682 31.2164 48.2144 29.3189C42.6769 20.2145 36.7169 14.7201 27.4838 9.31885C25.5188 8.1701 23.1532 7.71698 20.6532 7.12323C19.3125 7.0426 17.9707 6.96072 16.6294 6.87885C15.81 6.5376 14.9588 5.53573 14.1907 5.04947C11.1319 3.11698 3.28567 -1.08615 1.02067 4.4401C-0.409958 7.92823 3.15879 11.3307 4.43442 13.0988C5.33067 14.3376 6.47754 15.7282 7.11754 17.1226C7.53879 18.0395 7.61129 18.9588 7.97192 19.9282C8.85754 22.317 9.62942 24.9157 10.7763 27.1226C11.3557 28.2401 11.9944 29.4164 12.7275 30.4151C13.1763 31.0282 13.9469 31.2982 14.0682 32.2445C13.3157 33.2982 13.2725 34.9345 12.8494 36.2695C10.9432 42.2789 11.6625 49.7489 14.435 54.1964C15.285 55.5626 17.2894 58.4907 20.0444 57.367C22.4544 56.3857 21.9163 53.3432 22.6057 50.6595C22.7613 50.0514 22.6657 49.6039 22.9713 49.1964V49.3182L25.1669 53.7082C26.7919 56.3251 29.6744 59.0595 32.1182 60.9045C33.385 61.8614 34.3825 63.5151 36.0207 64.0751V63.9526H35.8988C35.5813 63.4582 35.0844 63.2532 34.6794 62.8557C33.725 61.9201 32.6638 60.757 31.875 59.6851C29.6525 56.6682 27.6888 53.3663 25.8994 49.9295C25.0444 48.2876 24.3013 46.4776 23.5813 44.807C23.3038 44.1632 23.3075 43.1889 22.7288 42.8557C21.9394 44.0795 20.7775 45.0695 20.1675 46.5145C19.1919 48.8245 19.0663 51.642 18.7044 54.5632C18.4907 54.6395 18.5857 54.587 18.46 54.6845C16.7613 54.2751 16.165 52.527 15.5332 51.0264C13.9369 47.2326 13.64 41.1251 15.045 36.7582C15.4088 35.6276 17.0513 32.0701 16.3863 31.0257C16.0688 29.9845 15.0213 29.382 14.4357 28.5864C13.71 27.6026 12.9863 26.3076 12.4832 25.1714C11.1769 22.2145 10.5669 18.8939 9.19129 15.9039C8.53317 14.4745 7.42129 13.0276 6.50817 11.7576C5.49754 10.3495 4.36504 9.3126 3.58129 7.61072C3.30254 7.00572 2.92442 6.03697 3.33692 5.4151C3.46817 4.99572 3.65442 4.82072 4.06879 4.68385C4.77629 4.13823 6.74629 4.8651 7.48254 5.17072C9.43817 5.98322 11.0707 6.75698 12.7275 7.85448C13.5219 8.38198 14.3269 9.40135 15.2882 9.68385H16.3857C18.1025 10.0782 20.0257 9.80573 21.63 10.2932C24.465 11.1545 27.0057 12.4951 29.3125 13.952C36.3413 18.3907 42.0888 24.7082 46.02 32.2451C46.6525 33.4589 46.9263 34.6163 47.4832 35.9039C48.6069 38.4995 50.0225 41.1701 51.1407 43.7089C52.2569 46.2414 53.3444 48.797 54.9219 50.9045C55.7513 52.012 58.9538 52.6064 60.41 53.222C61.43 53.6526 63.1019 54.1026 64.0688 54.6845C65.9144 55.7982 67.7032 57.1239 69.435 58.3439C70.2994 58.9532 72.96 60.2914 73.0925 61.3932ZM18.5807 14.9301C17.6863 14.9132 17.0538 15.0276 16.385 15.1732V15.2951H16.5069C16.9338 16.1713 17.6869 16.7364 18.2138 17.4907C18.62 18.3451 19.0269 19.1982 19.4338 20.0513L19.555 19.9307C20.3107 19.3976 20.6563 18.547 20.6519 17.247C20.3494 16.9289 20.305 16.5301 20.0425 16.1501C19.695 15.6432 19.0207 15.3551 18.5807 14.9301Z" fill="#00618A"/>
</svg>
