<svg width="80" height="81" viewBox="0 0 80 81" fill="none" xmlns="http://www.w3.org/2000/svg">
<path fill-rule="evenodd" clip-rule="evenodd" d="M77.0363 48.2539C76.755 46.4302 75.2231 45.2358 73.4412 45.1552C72.7962 45.1258 72.1413 45.1933 71.4981 45.2752C70.7213 45.3739 69.9538 45.5489 69.1787 45.6645C68.6431 45.7445 68.1 45.7814 67.565 45.8364L67.5519 45.767C68.5506 43.8808 69.5912 42.0152 70.5363 40.102C71.2606 38.6345 71.8806 37.1139 72.5212 35.6058C73.5812 33.107 74.4281 30.5308 75.1294 27.9127C75.8013 25.4058 76.3763 22.8714 76.5569 20.2708C76.6294 19.232 76.6794 18.1889 76.6738 17.1489C76.6688 16.3195 76.5794 15.4889 76.4962 14.662C76.4025 13.7145 76.1162 12.8164 75.72 11.952C75.1975 10.8133 74.3875 9.87892 73.535 8.99142C72.8525 8.28079 72.1019 7.63329 71.3575 6.98642C70.2962 6.06329 69.1031 5.32642 67.8638 4.67204C66.4598 3.926 64.9723 3.34905 63.4325 2.95329C62.4994 2.71517 61.545 2.53829 60.6 2.34954C60.26 2.28079 59.9194 2.13892 59.5794 2.13892H53.1787C52.9475 2.13892 52.7181 2.25829 52.485 2.28454C50.9525 2.45517 49.4381 2.74392 47.9675 3.19954C47.4175 3.37017 46.915 3.26267 46.3925 3.21454C45.9919 3.17767 45.5981 3.07017 45.1975 3.05017C43.6712 2.97392 42.1431 2.86204 40.6175 2.87829C39.1556 2.89329 37.7087 3.13392 36.2938 3.53579C35.1094 3.87204 33.9506 4.28267 32.8894 4.90517C32.435 5.17142 32.075 5.12142 31.605 4.98579C30.0256 4.53017 28.435 4.10204 26.8306 3.74267C25.8306 3.51892 24.8025 3.40767 23.7812 3.30079C22.8013 3.19894 21.8175 3.13764 20.8325 3.11704C19.8713 3.09642 18.9031 3.09704 17.9463 3.18204C16.4222 3.31454 14.9199 3.63208 13.4725 4.12767C11.8695 4.67499 10.3718 5.49194 9.04375 6.54329C7.68937 7.61517 6.60312 8.92392 5.72937 10.4183C4.80875 11.9952 4.1775 13.6833 3.785 15.4564C3.5725 16.417 3.43813 17.4045 3.2925 18.3802C3.24688 18.6839 3.75 18.9877 3.125 19.2902V23.5364C3.75 23.8189 3.255 24.1008 3.29125 24.3839C3.37812 25.0645 3.455 25.7508 3.57 26.4264C3.75187 27.4958 3.9675 28.562 4.1875 29.6245C4.49298 31.1096 4.81508 32.5911 5.15375 34.0689C5.40125 35.1439 5.68312 36.2127 5.97812 37.2758C6.42875 38.8995 6.8725 40.5264 7.38188 42.132C7.855 43.6239 8.39687 45.0945 8.93437 46.5652C9.67875 48.5995 10.57 50.5683 11.6388 52.4552C12.5631 54.0889 13.6194 55.6189 15.0363 56.8777C15.97 57.707 17.0094 58.3445 18.2194 58.6633C19.17 58.9133 20.1363 58.9433 21.1094 58.7439C22.2181 58.5184 23.2538 58.0222 24.1244 57.2995C24.2262 57.2158 24.3381 57.152 24.4587 57.3058C24.9181 57.8877 25.5331 58.2758 26.1763 58.6114C27.9119 59.5164 29.8031 59.7877 31.7244 59.8983C32.1894 59.9252 32.6594 59.8583 33.1281 59.8452C34.0413 59.8202 34.9288 59.642 35.8019 59.3895C36.2594 59.257 36.7062 59.0889 37.1719 58.932C37.1963 59.4277 37.2275 59.9052 37.2419 60.3827L37.3069 62.9864C37.3188 63.3827 37.3344 63.7802 37.3713 64.1745C37.4656 65.1914 37.5581 66.2089 37.6794 67.2227C37.7637 67.9214 37.8512 68.6258 38.0156 69.3077C38.3452 70.6842 38.7965 72.0287 39.3644 73.3252C39.908 74.5836 40.7436 75.6945 41.8019 76.5658C43.1894 77.7133 44.8156 78.2027 46.5719 78.2933C47.2981 78.3314 48.045 78.2958 48.76 78.1658C49.8964 77.9638 51.0205 77.6978 52.1269 77.3689C54.3713 76.6914 56.3112 75.5214 57.7606 73.6308C58.5856 72.5533 59.2631 71.3877 59.6981 70.1008C60.0569 69.0377 60.395 67.9639 60.6637 66.8758C60.8762 66.0183 60.9813 65.1339 61.1106 64.2583C61.1963 63.6789 61.2475 63.0939 61.3013 62.5102C61.3888 61.562 61.4781 60.6145 61.5413 59.6645C61.585 59.0033 61.5831 58.3389 61.6094 57.6764C61.6175 57.4745 61.65 57.2739 61.6687 57.0727C61.6862 56.8864 61.78 56.822 61.97 56.8252C62.6394 56.8352 63.31 56.8527 63.9775 56.8227C64.7256 56.7889 65.4806 56.757 66.2169 56.6333C67.266 56.458 68.3066 56.2355 69.3356 55.9664C70.55 55.6489 71.6637 55.0802 72.7356 54.432C73.9844 53.6777 75.1225 52.7927 76.0462 51.6527C76.8494 50.6583 77.23 49.5089 77.0363 48.2539ZM74.9037 48.8677C74.8625 49.4395 74.6006 49.9295 74.2206 50.3483C72.4275 52.3252 70.1781 53.5245 67.605 54.1152C66.6275 54.3389 65.6188 54.4552 64.6181 54.5477C63.7632 54.6229 62.9044 54.6431 62.0469 54.6083C61.4181 54.5845 60.7944 54.4408 60.1519 54.3483C60.0875 54.9358 60.0262 55.5477 59.9519 56.1583L59.6525 58.4989C59.5619 59.2408 59.4913 59.9852 59.3981 60.7264C59.3069 61.4458 59.1931 62.1627 59.0975 62.882C59.0081 63.552 58.9425 64.2252 58.8431 64.8939C58.69 65.9189 58.5438 66.9464 58.3438 67.9633C58.1037 69.1789 57.7356 70.3564 57.135 71.4527C56.4025 72.7908 55.3638 73.8102 54.0419 74.5652C52.6794 75.3439 51.19 75.7489 49.68 76.0877C48.6112 76.3277 47.51 76.367 46.4275 76.2695C44.55 76.0995 42.9475 75.2964 41.7363 73.8408C40.58 72.4514 39.7975 70.8589 39.5175 69.0564C39.3868 68.1984 39.2844 67.3362 39.2106 66.4714C39.1277 65.5104 39.0654 64.5476 39.0238 63.5839C38.9683 62.3613 38.9273 61.1381 38.9006 59.9145C38.8675 58.4108 38.8569 56.907 38.8356 55.4033L38.8319 55.3458C38.0669 55.8045 37.315 56.307 36.5175 56.7208C35.5855 57.2029 34.5653 57.4906 33.5188 57.5664C32.695 57.6289 31.8606 57.6858 31.0406 57.6202C29.6963 57.512 28.3531 57.3014 27.1494 56.6395C26.6612 56.3708 26.1519 56.0439 25.8156 55.6145C25.0094 54.5858 25.3956 53.2858 26.6112 52.6602C27.4513 52.227 28.3681 52.0464 29.2788 51.8358C30.0713 51.656 30.8556 51.4414 31.6294 51.1927C32.3931 50.9427 32.875 50.3233 33.3506 49.7158L34.1044 48.7464C33.79 48.7133 33.4938 48.6795 33.1975 48.652C32.2981 48.567 31.44 48.3195 30.6194 47.9558C29.9169 47.6452 29.9062 47.6114 29.3913 48.1702C28.5312 49.1039 27.695 50.0595 26.8525 51.0089C26.2325 51.707 25.6163 52.4095 24.9994 53.1095C24.3881 53.802 23.8156 54.5339 23.1575 55.1783C22.18 56.1352 21.0019 56.7108 19.5963 56.6458C18.6944 56.6045 17.8688 56.2883 17.1263 55.7714C15.5938 54.7039 14.5613 53.2108 13.6213 51.6427C12.4169 49.6333 11.4925 47.4927 10.7013 45.2933C10.1537 43.7733 9.60375 42.252 9.12562 40.7102C8.60625 39.0345 8.15063 37.3377 7.7025 35.6414C7.36777 34.3599 7.05895 33.0717 6.77625 31.7777C6.4466 30.3081 6.14156 28.8331 5.86125 27.3533C5.675 26.3539 5.56688 25.3402 5.41625 24.3339C5.21313 22.9777 5.17563 21.6089 5.24938 20.247C5.315 19.0202 5.49125 17.7964 5.66625 16.5777C5.90875 14.8914 6.46437 13.3002 7.26375 11.7977C7.75312 10.877 8.36063 10.0402 9.06313 9.26267C10.2163 7.98642 11.6119 7.06392 13.1644 6.37142C14.2494 5.88767 15.3956 5.59642 16.5638 5.36892C18.2975 5.03142 20.0469 5.04454 21.7969 5.08079C22.5619 5.09642 23.3237 5.23579 24.0881 5.31142C25.7337 5.47517 27.3469 5.82142 28.9394 6.24892C30.1 6.56017 31.2369 6.96329 32.3881 7.31329C32.5037 7.34829 32.6731 7.34517 32.7675 7.28329C34.3275 6.26517 36.0325 5.59329 37.8456 5.20892C38.5338 5.06329 39.2438 4.99954 39.9475 4.95454C40.8031 4.90017 41.6656 4.85017 42.5194 4.89954C43.5456 4.95829 44.5669 5.10954 45.5869 5.24954C46.0819 5.31704 46.565 5.48892 47.0612 5.53579C47.2987 5.55829 47.5506 5.38454 47.8019 5.32642C49.0825 5.03079 50.3575 4.70142 51.6494 4.46767C52.6113 4.29392 53.5938 4.21204 54.5719 4.15579C55.6625 4.09329 56.7612 4.04767 57.8512 4.10017C59.2315 4.16852 60.6027 4.3616 61.9481 4.67704C63.6212 5.06642 65.2262 5.63204 66.7519 6.41704C67.8919 7.00329 68.9756 7.68329 69.9512 8.51954C70.5906 9.06829 71.245 9.61017 71.8225 10.2214C72.535 10.9752 73.2619 11.7295 73.7087 12.6952C74.045 13.4233 74.285 14.177 74.3512 14.9745C74.4337 15.9658 74.5338 16.9608 74.5244 17.9533C74.5156 18.9027 74.3863 19.8514 74.2944 20.7983C74.0856 22.957 73.6162 25.0689 73.0462 27.1527C72.5694 28.8739 72.0297 30.5772 71.4281 32.2589C70.8788 33.8095 70.245 35.332 69.6044 36.8483C69.1328 37.9714 68.6204 39.0769 68.0681 40.1627C67.02 42.2164 65.93 44.2489 64.6694 46.1833C64.4519 46.5177 64.2456 46.8602 64.0331 47.2014C64.5831 47.5727 65.2062 47.7033 65.8337 47.7708C66.4306 47.8358 67.0394 47.8745 67.6356 47.8302C68.59 47.7595 69.5412 47.6233 70.49 47.4902C71.43 47.3589 72.3512 47.0914 73.3163 47.162C74.28 47.232 74.9694 47.9645 74.9037 48.8677ZM61.1456 46.772C60.7363 46.2433 60.3188 45.7208 59.9181 45.1858C59.2894 44.3458 58.8375 43.4077 58.3838 42.4652C57.9538 41.572 57.4263 40.7264 56.9731 39.8433C56.1825 38.3027 55.3775 36.767 54.6494 35.1964C53.7338 33.2233 53.0119 31.1802 52.7844 28.9945C52.6881 28.0695 52.6637 27.1458 52.8506 26.2295C53.15 24.7664 53.9144 23.622 55.1994 22.837C56.3913 22.1089 57.7194 21.8739 59.08 21.8002C59.9244 21.7545 60.7725 21.792 61.6488 21.792L61.6194 21.6439C61.0744 20.5045 60.565 19.3458 59.9688 18.2333C59.1275 16.6633 58.0512 15.2477 56.8525 13.9352C55.9644 12.9633 55.0025 12.0614 53.9487 11.2645C52.9125 10.4802 51.8206 9.77954 50.6556 9.20642C49.2663 8.52329 47.8194 7.99517 46.3013 7.65829C44.8425 7.33454 43.3744 7.13642 41.8781 7.12017C40.6019 7.10642 39.3338 7.16392 38.0906 7.45204C36.2144 7.88642 34.4981 8.65892 33.005 9.91017C32.1789 10.603 31.4407 11.3943 30.8069 12.2664C30.0594 13.2933 29.4562 14.402 28.9406 15.5645C28.2331 17.1595 27.7475 18.8195 27.4156 20.5258C27.2494 21.3764 27.1194 22.2345 26.9869 23.092C26.9406 23.392 26.9369 23.6989 26.91 24.0427C27.1406 23.9227 27.3069 23.8302 27.4769 23.7477L28.03 23.4995C29.9006 22.6439 31.8388 22.0933 33.9219 22.1564C34.8069 22.1833 35.6538 22.3583 36.4406 22.7458C37.95 23.4902 38.8331 24.7558 39.2169 26.3577C39.4819 27.4633 39.6631 28.5908 39.8394 29.7152C39.9775 30.5933 40.1188 31.4808 40.135 32.3664C40.1581 33.6608 40.0925 34.9577 40.0219 36.2514C39.9612 37.3515 39.7336 38.436 39.3469 39.4677C38.6469 41.3383 37.8669 43.1783 37.1381 45.0383C36.8975 45.6527 36.7125 46.2889 36.485 46.9645C36.8363 46.9645 37.1213 46.962 37.4062 46.9658C37.5175 46.9677 37.6312 46.9708 37.7388 46.9964C38.5762 47.1939 39.3025 47.5733 39.8981 48.2177C40.6925 49.0752 41.1094 50.0758 41.1306 51.2339C41.1425 51.8758 41.075 52.5195 41.0781 53.1614C41.0912 56.1527 41.1138 59.1439 41.1387 62.1345C41.1431 62.6233 41.1675 63.1127 41.2025 63.6008C41.2756 64.6227 41.3494 65.6452 41.4494 66.6645C41.5194 67.3877 41.6169 68.1095 41.7312 68.8277C41.8931 69.8452 42.3563 70.7508 42.8819 71.6164C43.3344 72.3608 43.9225 72.9933 44.6975 73.4295C46.0144 74.1708 47.4325 74.2327 48.8619 73.9595C49.8275 73.7752 50.7756 73.4789 51.7131 73.1733C52.6351 72.8775 53.4769 72.3742 54.1738 71.702C54.8306 71.0652 55.2969 70.2889 55.6112 69.432C56.2212 67.7702 56.4113 66.0202 56.6637 64.2839C56.7581 63.6339 56.84 62.982 56.9263 62.3308C57.0244 61.5895 57.1238 60.8489 57.2188 60.1083C57.2888 59.5564 57.3525 59.0033 57.42 58.4514C57.5163 57.6589 57.6181 56.867 57.71 56.0739C57.7806 55.4608 57.8406 54.8452 57.9031 54.2308C57.9837 53.4458 58.0706 52.6608 58.14 51.8745C58.1938 51.2777 58.1719 50.6702 58.2775 50.0845C58.4719 49.0108 58.9794 48.097 59.9313 47.5064C60.3294 47.2595 60.7788 47.097 61.2206 46.8883L61.1456 46.772ZM25.1475 42.3645C24.6728 41.2482 24.3868 40.0608 24.3013 38.8508C24.2213 37.7102 24.3569 36.5739 24.4738 35.4383C24.5875 34.3383 24.6819 33.2333 24.715 32.1283C24.77 30.312 24.6475 28.4983 24.5606 26.6833C24.5081 25.6027 24.6338 24.5089 24.73 23.4258C24.8169 22.4502 24.925 21.472 25.1094 20.5108C25.4187 18.8977 25.8294 17.3077 26.4131 15.7664C26.9675 14.3052 27.6044 12.882 28.5037 11.6008C29.12 10.722 29.8194 9.90079 30.4912 9.04204L30.2919 8.97142C28.1056 8.27704 25.8837 7.73454 23.5987 7.49767C22.5181 7.38579 21.4338 7.32017 20.35 7.25579C20.0175 7.23579 19.68 7.28079 19.3463 7.31267C18.52 7.39142 17.6838 7.42267 16.8706 7.57767C15.4869 7.84079 14.1594 8.28329 12.93 9.00392C11.8263 9.65079 10.8994 10.487 10.1231 11.4902C9.26563 12.5977 8.68875 13.8502 8.27437 15.1858C7.785 16.7614 7.55188 18.3827 7.48875 20.0189C7.43375 21.4533 7.40625 22.8958 7.65375 24.3245C7.83813 25.3883 7.96125 26.4633 8.16437 27.5227C8.44125 28.967 8.73812 30.4083 9.08125 31.8377C9.57187 33.8839 10.0619 35.9333 10.6431 37.9545C11.1994 39.8914 11.8269 41.8108 12.5069 43.707C13.0631 45.2545 13.7063 46.7733 14.3837 48.272C14.825 49.2483 15.3594 50.1877 15.9194 51.102C16.515 52.0727 17.1925 52.9939 18.1119 53.6983C19.2719 54.5877 20.17 54.7258 21.3488 53.7502C21.8538 53.332 22.2806 52.8158 22.72 52.3239C23.4181 51.5427 24.0919 50.7402 24.7869 49.9564C25.6719 48.9577 26.5681 47.9695 27.4575 46.9758C27.6456 46.7658 27.8263 46.5495 28.0094 46.337L27.7069 46.0714C26.6085 45.0245 25.7373 43.7627 25.1475 42.3645ZM58.7025 12.6339C59.4297 13.4793 60.1197 14.356 60.7706 15.2614C62.0206 17.017 63.0194 18.9127 63.755 20.9408C64.0806 21.8345 64.3406 22.737 64.2244 23.7152C64.1438 24.4002 64.1506 25.0952 64.09 25.7839C64.0394 26.357 63.9487 26.927 63.8744 27.4983C63.7631 28.3595 63.6019 29.2183 63.5537 30.0833C63.5081 30.9064 63.5556 31.7383 63.6075 32.5633C63.66 33.4014 63.7731 34.2358 63.85 35.0727C63.9369 36.0214 64.0537 36.9702 64.0806 37.9208C64.1025 38.7014 64.0331 39.487 63.965 40.2664C63.8838 41.2052 63.6456 42.1139 63.2906 42.9858C63.0412 43.5995 62.7431 44.1945 62.4613 44.8089L62.5744 44.9289L62.7462 45.062L62.9194 44.752C64.3814 42.4512 65.6808 40.051 66.8081 37.5689C67.5294 35.9667 68.2144 34.3484 68.8625 32.7152C69.8775 30.1752 70.6806 27.5639 71.3019 24.9008C71.5806 23.7052 71.7937 22.4914 71.9831 21.2777C72.1306 20.3289 72.2538 19.3689 72.2812 18.4114C72.3106 17.3958 72.2544 16.372 72.1606 15.3589C72.0906 14.5939 71.9019 13.8239 71.4225 13.202C70.6519 12.2008 69.82 11.2433 68.7969 10.4858C67.9356 9.84767 67.0775 9.19329 66.1531 8.65642C64.6875 7.80642 63.1012 7.24017 61.4437 6.85454C59.8262 6.47767 58.1875 6.31517 56.5381 6.28079C55.5656 6.26017 54.5888 6.36454 53.6181 6.45579C52.7388 6.53829 51.865 6.67892 50.9794 6.79517C51.9294 7.32954 52.8662 7.80454 53.75 8.36454C55.6081 9.54142 57.2731 10.9577 58.7025 12.6339ZM34.5619 45.5852C35.1625 43.6645 35.9806 41.8308 36.7731 39.9858C37.4156 38.4895 37.7669 36.9133 37.8838 35.2945C37.9419 34.4964 37.9256 33.6883 37.8862 32.8877C37.8472 31.997 37.7654 31.1087 37.6413 30.2258C37.475 29.1002 37.2856 27.9739 37.0194 26.8689C36.7306 25.6733 36.0025 24.8408 34.755 24.5339C33.995 24.347 33.24 24.3545 32.4719 24.4758C30.5956 24.7714 28.8781 25.4627 27.2781 26.4752C26.9563 26.6789 26.7794 26.8433 26.835 27.3052C26.9525 28.2833 26.9781 29.277 26.9738 30.2645C26.9675 31.662 26.9081 33.0595 26.855 34.4564C26.8375 34.9114 26.7719 35.3639 26.7231 35.817C26.6481 36.5108 26.5037 37.2039 26.5081 37.8964C26.5125 38.6102 26.5856 39.3408 26.7587 40.032C27.3088 42.2239 28.4737 44.0177 30.3831 45.2833C31.5575 46.0614 32.8569 46.4539 34.2831 46.5283C34.38 46.2008 34.4662 45.8914 34.5619 45.5852ZM32.3206 26.7808C32.0694 26.2533 32.2131 25.8164 32.7956 25.6139C32.9375 25.5639 33.0837 25.5108 33.2312 25.4964C33.4337 25.4764 33.64 25.4914 33.845 25.4914C34.5837 25.4952 35.2944 25.5983 35.9044 26.0683C36.2956 26.3695 36.4006 26.7695 36.1475 27.1802C35.7881 27.7627 35.24 28.0552 34.5669 28.1114C33.5063 28.1995 32.7619 27.7052 32.3206 26.7808ZM61.7206 26.5883C61.8056 25.8858 61.8737 25.1814 61.9606 24.4789C61.9956 24.1964 61.8469 24.1202 61.61 24.1133C60.865 24.0927 60.12 24.0664 59.375 24.0527C58.535 24.0377 57.7175 24.1727 56.94 24.492C56.0775 24.847 55.4206 25.4158 55.1525 26.3545C54.9563 27.0468 54.8942 27.7702 54.9694 28.4858C55.0738 29.5923 55.3245 30.6802 55.715 31.7208C56.2362 33.1089 56.7819 34.4964 57.4337 35.8264C58.3169 37.627 59.3162 39.3702 60.2544 41.1433C60.505 41.6164 60.7156 42.1102 60.9769 42.6627C61.5036 41.5643 61.7914 40.3667 61.8213 39.1489C61.8469 38.1427 61.7663 37.132 61.7075 36.1252C61.6706 35.5089 61.5838 34.8964 61.5238 34.2814C61.44 33.4245 61.3131 32.5683 61.2938 31.7095C61.2744 30.8364 61.3363 29.9583 61.4113 29.0864C61.4819 28.2502 61.62 27.4208 61.7206 26.5883ZM60.04 25.912C59.7631 26.6764 59.1712 27.1077 58.4037 27.2345C57.6881 27.352 57.0613 27.0877 56.595 26.517C56.2631 26.1108 56.39 25.6295 56.8875 25.3552C57.4587 25.0389 58.0869 24.9589 58.8275 24.9108C59.0288 24.9477 59.3319 24.9783 59.62 25.0608C60.0381 25.1789 60.1925 25.4933 60.04 25.912ZM37.9012 49.4495C37.4919 49.1152 36.9506 49.0958 36.5612 49.4627C36.0781 49.9189 35.6531 50.4408 35.2281 50.9552C34.7375 51.5495 34.2775 52.1677 33.6444 52.6283C32.7231 53.2977 31.6494 53.5752 30.57 53.8377C29.7119 54.0464 28.85 54.2402 27.9894 54.4408L27.9787 54.552C28.2344 54.6702 28.4819 54.8177 28.7481 54.902C30.0606 55.3177 31.3956 55.5245 32.7825 55.407C33.7838 55.322 34.7375 55.1039 35.6413 54.6752C36.885 54.0858 37.8419 53.152 38.6556 52.0658C38.7919 51.8845 38.8538 51.6164 38.87 51.3827C38.9256 50.557 38.5062 49.9433 37.9012 49.4495ZM70.2456 49.7783C69.1894 49.8914 68.1319 50.0114 67.0725 50.072C66.5613 50.1014 66.0425 50.0039 65.5263 49.962C64.6606 49.892 63.8156 49.6995 63.0837 49.237C62.66 48.9702 62.3081 48.9402 61.8581 49.0914C61.2156 49.3077 60.6912 49.6364 60.5363 50.3327C60.4306 50.8033 60.3925 51.2908 60.35 51.7727C60.3419 51.8577 60.4481 52.0139 60.5294 52.0352C61.025 52.1658 61.5231 52.3202 62.03 52.3658C62.6525 52.422 63.2863 52.4039 63.9131 52.3727C64.59 52.3389 65.2712 52.2952 65.9381 52.1827C67.51 51.9189 69.0306 51.4889 70.3812 50.5977C70.8681 50.2758 71.3506 49.947 71.8344 49.6214L71.7944 49.5527C71.2781 49.6295 70.7644 49.7233 70.2456 49.7783Z" fill="#336791"/>
</svg>
