<svg width="81" height="82" viewBox="0 0 81 82" fill="none" xmlns="http://www.w3.org/2000/svg">
<path d="M73.0462 5.15177C71.9258 7.83969 70.4914 10.3857 68.773 12.7368C61.2443 5.21233 51.036 0.984935 40.3918 0.983643C18.3787 0.983643 0.263672 19.1136 0.263672 41.1511C0.263438 46.593 1.36817 51.9783 3.51093 56.9806C5.65368 61.9829 8.78982 66.4981 12.7293 70.2524L14.2093 71.5649C21.4424 77.6633 30.5972 81.0106 40.058 81.0161C60.9874 81.0161 78.5812 64.6161 80.0712 43.7143C81.1656 33.4824 78.1643 20.5411 73.0462 5.15177ZM18.4305 70.4811C18.1083 70.8781 17.7016 71.1982 17.2401 71.4182C16.7785 71.6381 16.2737 71.7523 15.7624 71.7524C13.8762 71.7524 12.333 70.1999 12.333 68.3136C12.333 66.428 13.8862 64.8755 15.7624 64.8755C16.5437 64.8755 17.3155 65.1461 17.9199 65.6468C19.3893 66.8343 19.6187 69.0118 18.4305 70.4811ZM72.8799 58.4574C62.978 71.6586 41.8299 67.2093 28.2699 67.8449C28.2699 67.8449 25.8624 67.9911 23.4443 68.3868C23.4443 68.3868 24.3505 68.0011 25.5287 67.553C35.0449 64.2399 39.5474 63.5936 45.3318 60.6243C56.2237 55.0811 66.9905 42.953 69.2318 30.3349C65.0837 42.4736 52.5131 52.9036 41.0587 57.1443C33.2105 60.0411 19.0349 62.8543 19.0349 62.8543L18.4618 62.5518C8.81055 57.853 8.51805 36.9411 26.0599 30.1893C33.7418 27.2299 41.0899 28.8555 49.3868 26.8755C58.2462 24.7711 68.4918 18.123 72.6605 9.45427C77.3299 23.323 82.948 45.0368 72.8793 58.4574H72.8799Z" fill="#77BC1F"/>
</svg>
