<svg width="180" height="23" viewBox="0 0 180 23" fill="none" xmlns="http://www.w3.org/2000/svg">
<path d="M0.814676 0.000177515L0 3.17704H7.54866L4.77905 14.2557L2.74245 22.4289H7.68447L9.7209 14.2557L12.4905 3.17704H20.012L20.7995 0L0.814676 0.000177515ZM151.679 0.244633C151.277 1.89547 150.908 3.18379 150.539 4.2905H148.692L149.289 3.91023C150.319 3.24219 150.826 2.89903 150.837 2.85128C150.288 1.60982 149.823 0.752896 149.398 0.325941C149.386 0.248717 148.602 0.727864 147.09 1.71084L146.574 2.0366C146.585 2.06057 146.647 2.1527 146.764 2.30804C147.297 2.99987 147.746 3.65157 148.095 4.29032H146.574L146.086 6.57137H149.507L149.262 7.03312L149.018 7.4947H145.325L144.863 9.77575H147.416C146.326 11.1051 145.031 12.1727 143.533 12.98L145.922 1.57538H139.324L136.853 13.36C136.787 13.6684 136.712 13.9619 136.636 14.256C136.061 16.536 135.207 18.5811 134.056 20.3928C134.754 21.0087 135.322 21.6689 135.794 22.3749C137.177 20.4026 138.263 17.8772 139.08 14.7719H140.519L139.704 18.6278C139.64 19.1558 139.103 19.3935 138.129 19.3067C138.332 20.2504 138.419 21.1956 138.347 22.185C140.698 22.1697 141.885 21.6398 141.931 20.5558L143.261 14.256L143.343 13.8216C143.484 13.9615 143.619 14.1064 143.75 14.256C144.067 14.6297 144.314 14.997 144.483 15.3693C144.844 15.1912 145.272 14.9175 145.759 14.5003L144.89 17.3242H152.792L152.656 18.0574C152.343 19.5824 151.904 20.3232 151.353 20.2297L151.787 18.0574H143.315L142.826 20.3111H149.723C150.118 21.1615 150.286 22.0326 150.212 22.945C152.413 22.8734 153.761 22.5345 154.285 21.9132C154.449 21.7319 154.622 21.417 154.801 20.8814C155.161 19.805 155.582 18.2311 156.105 16.1566L156.403 14.9621H153.471L153.634 14.2558L153.851 13.1699C154.372 13.626 154.835 13.9812 155.236 14.2558C155.532 14.4591 155.794 14.6145 156.023 14.7176C156.149 14.5601 156.279 14.4048 156.403 14.2558C157.159 13.3382 157.877 12.5734 158.549 11.948C156.778 11.444 155.481 10.7206 154.666 9.77575H158.549L159.01 7.4947H152.032C152.219 7.22095 152.392 6.92679 152.52 6.57155H158.277L158.739 4.29067H156.675C157.577 3.40978 158.369 2.68529 159.092 2.11844L156.675 0.624898C155.901 1.6132 155.065 2.57558 154.15 3.50316L155.616 4.39914H153.525L153.824 3.44884L154.204 2.49835C154.522 1.69788 154.782 1.08967 154.965 0.706206C154.982 0.548739 154.879 0.469384 154.557 0.434588C153.948 0.339078 152.991 0.276056 151.679 0.244633ZM166.288 0.434588C165.551 0.679044 164.406 1.12535 162.812 1.79214C163.314 3.22266 163.675 4.64981 163.925 6.08246C164.489 5.86836 165.712 5.44815 167.564 4.77905C166.792 1.99861 166.35 0.544301 166.288 0.434588ZM168.976 1.65651L168.405 4.2905H170.578L169.546 9.20518H166.83L166.26 11.839H169.003L168.487 14.2555L166.83 22.1029H169.872L171.501 14.2555L172.017 11.839H174.189L173.755 13.8211C173.723 13.9677 173.7 14.1113 173.673 14.2555C173.117 17.1675 173.403 19.445 174.515 21.0711C175.193 22.0346 176.011 22.442 176.986 22.2932C177.996 22.3453 179.007 20.7148 180 17.4055C179.181 17.0339 178.357 16.6719 177.529 16.3194C177.036 17.8357 176.73 18.3276 176.606 17.7858C176.411 17.0125 176.452 15.8362 176.714 14.2557C176.799 13.7453 176.908 13.1967 177.04 12.5993L179.348 1.65651H168.976ZM123.874 1.92813L122.842 6.1098H118.878L118.117 9.20536H132.617L123.874 1.92813ZM141.361 3.91023H142.8L142.121 7.14142H140.709L141.361 3.91023ZM173.592 4.2905H175.873L174.841 9.20518H172.56L173.592 4.2905ZM26.4746 5.18648C23.4616 5.18648 20.8485 5.97399 18.6273 7.54884C16.4181 9.14659 14.9834 11.2396 14.337 13.8213C14.299 13.9725 14.2589 14.108 14.2285 14.2557C13.7321 16.653 14.1721 18.6079 15.5591 20.0939C17.0372 21.6579 19.3182 22.4289 22.4017 22.4289C27.6574 22.4289 31.6861 19.2225 32.0955 18.8719L29.8146 18.356C29.2781 18.4798 26.3563 19.326 23.4335 19.0621C19.7461 18.7308 18.9099 16.0308 19.1162 14.6903H33.9148L34.0506 14.2558L34.1592 13.7943C34.8304 11.1028 34.4752 8.98593 33.1003 7.46753C31.7139 5.936 29.5179 5.18648 26.4746 5.18648ZM70.3273 5.18648C67.1569 5.18648 64.2894 6.00879 61.6926 7.68465C59.0912 9.36176 57.4956 11.4394 56.8863 13.8758C56.8528 14.0093 56.8038 14.1243 56.7779 14.2558C56.3229 16.5172 56.9256 18.4301 58.57 19.9852C60.3142 21.6165 62.7831 22.4291 65.9829 22.4291C67.9216 22.4291 69.9559 22.0271 72.0923 21.2345L73.3414 16.2655C71.9208 17.3592 70.7293 18.0858 69.7843 18.465C68.8091 18.856 67.7542 19.0622 66.6072 19.0622C64.8098 19.0622 63.4499 18.5801 62.5344 17.596C61.7242 16.7096 61.4341 15.5845 61.6654 14.256C61.6913 14.1096 61.7359 13.9727 61.7739 13.8216C62.1486 12.3251 63.0501 11.0673 64.4893 10.0745C65.9252 9.0818 67.5511 8.58099 69.3497 8.58099C70.4956 8.58099 71.4232 8.77556 72.1736 9.17837C72.9384 9.56822 73.7398 10.3003 74.5631 11.3506L75.8122 6.32727C74.193 5.5568 72.3661 5.18648 70.3273 5.18648ZM88.2214 5.18648C85.2074 5.18648 82.5943 5.97399 80.3742 7.54884C78.1639 9.14659 76.7292 11.2396 76.0839 13.8213C76.0459 13.9725 76.0066 14.108 75.9754 14.2557C75.4779 16.653 75.9166 18.6079 77.3058 20.0939C78.7819 21.6579 81.0662 22.4289 84.1486 22.4289C89.4022 22.4289 93.434 19.2225 93.8423 18.8719L91.5614 18.356C91.025 18.4798 88.1032 19.326 85.1804 19.0621C81.494 18.7308 80.6545 16.0308 80.8631 14.6903H95.6616L95.7974 14.2558L95.9061 13.7943C96.5795 11.1028 96.2471 8.98593 94.8743 7.46753C93.4882 5.936 91.266 5.18648 88.2214 5.18648ZM49.7179 5.64805C47.624 5.64805 45.5766 6.29532 43.5813 7.60317L39.1552 6.1098L37.1186 14.2557L35.082 22.4289H39.8882L41.8432 14.5546C41.8684 14.4536 41.8996 14.3471 41.9246 14.2557C42.4242 12.379 43.0944 11.0408 43.9069 10.2643C44.7779 9.43881 45.9879 9.04239 47.5725 9.04239C49.03 9.04239 49.9739 9.33886 50.3693 9.96553C50.781 10.5782 50.7723 11.6968 50.3693 13.3054L50.152 14.2557L48.0884 22.4289H52.8944L54.931 14.2557L55.3928 12.4094C55.9694 10.1079 55.8109 8.46027 54.9039 7.44037C53.8582 6.24543 52.1247 5.64805 49.7179 5.64805ZM111.058 5.64805C108.962 5.64805 106.918 6.29532 104.921 7.60317L100.495 6.1098L98.4582 14.2557L96.4218 22.4289H101.228L103.183 14.5546C103.209 14.4536 103.238 14.3471 103.264 14.2557C103.766 12.379 104.432 11.0408 105.247 10.2643C106.119 9.43881 107.325 9.04239 108.912 9.04239C110.369 9.04239 111.312 9.33886 111.709 9.96553C112.12 10.5782 112.112 11.6968 111.709 13.3054L111.465 14.2557L109.428 22.4289H114.234L116.271 14.2557L116.732 12.4094C117.309 10.1079 117.15 8.46027 116.244 7.44037C115.199 6.24543 113.462 5.64805 111.058 5.64805ZM159.852 7.35871L159.282 10.0199H161.97L161.074 14.2557L160.504 17.0798C160.38 17.6706 159.908 18.2864 159.092 18.9532C158.852 19.151 158.704 19.2781 158.685 19.3337C158.983 20.2689 159.516 21.181 160.259 22.0218C160.317 22.0371 160.635 21.7568 161.183 21.2071C162 20.3415 164.072 18.4333 167.428 15.4779C167.417 15.4398 167.232 15.0435 166.885 14.3103L166.858 14.2558L166.369 13.1699L165.826 13.6315C165.565 13.8607 165.313 14.0716 165.093 14.256C164.506 14.7643 164.061 15.1371 163.762 15.3693L164.007 14.256L165.446 7.35907H159.852V7.35871ZM25.7144 8.58064C28.2624 8.58064 29.6244 9.58207 29.7872 11.5947H20.2021C20.4736 11.1255 20.7887 10.7149 21.1798 10.3456C21.5675 9.97849 22.0051 9.65148 22.4832 9.39513C22.9741 9.12565 23.4878 8.9325 24.0309 8.79775C24.5801 8.65195 25.1461 8.57895 25.7144 8.58064ZM87.4613 8.58064C90.0093 8.58064 91.3734 9.58207 91.5341 11.5947H81.949C82.2228 11.1255 82.5388 10.7149 82.9265 10.3456C83.3165 9.97849 83.7575 9.65148 84.2299 9.39513C84.7252 9.12565 85.2347 8.9325 85.7778 8.79775C86.327 8.65205 86.893 8.57906 87.4613 8.58064ZM140.22 9.39531H141.632L141.008 12.4094H139.596L140.22 9.39531ZM150.62 9.7754H151.462C151.579 10.1089 151.734 10.4278 151.924 10.7257H149.86L150.24 10.237L150.62 9.7754ZM121.892 9.91121L120.806 14.2557L118.742 22.4289H123.521L125.585 14.2557L126.671 9.91121H121.892ZM147.687 12.871H151.082L150.81 14.2557L150.62 15.0434H148.285C148.372 14.7522 148.45 14.4916 148.529 14.2557C148.62 13.9842 148.692 13.7529 148.774 13.5496C148.66 13.4845 148.59 13.4412 148.529 13.4412H147.117L147.687 12.871Z" fill="#006CB6"/>
</svg>
