<svg width="133" height="23" viewBox="0 0 133 23" fill="none" xmlns="http://www.w3.org/2000/svg">
<path d="M0.814676 0.000177515L0 3.17704H7.54866L4.77905 14.2557L2.74245 22.4289H7.68447L9.7209 14.2557L12.4905 3.17704H20.012L20.7995 0L0.814676 0.000177515ZM123.874 1.92813L122.842 6.1098H118.878L118.117 9.20536H132.617L123.874 1.92813ZM26.4746 5.18648C23.4616 5.18648 20.8485 5.97399 18.6273 7.54884C16.4181 9.14659 14.9834 11.2396 14.337 13.8213C14.299 13.9725 14.2589 14.108 14.2285 14.2557C13.7321 16.653 14.1721 18.6079 15.5591 20.0939C17.0372 21.6579 19.3182 22.4289 22.4017 22.4289C27.6574 22.4289 31.6861 19.2225 32.0955 18.8719L29.8146 18.356C29.2781 18.4798 26.3563 19.326 23.4335 19.0621C19.7461 18.7308 18.9099 16.0308 19.1162 14.6903H33.9148L34.0506 14.2558L34.1592 13.7943C34.8304 11.1028 34.4752 8.98593 33.1003 7.46754C31.7139 5.936 29.5179 5.18648 26.4746 5.18648ZM70.3273 5.18648C67.1569 5.18648 64.2894 6.00879 61.6926 7.68465C59.0912 9.36176 57.4956 11.4394 56.8863 13.8758C56.8528 14.0093 56.8038 14.1243 56.7779 14.2558C56.3229 16.5172 56.9256 18.4301 58.57 19.9852C60.3142 21.6165 62.7831 22.4291 65.9829 22.4291C67.9216 22.4291 69.9559 22.0271 72.0923 21.2345L73.3414 16.2655C71.9208 17.3592 70.7293 18.0858 69.7843 18.465C68.8091 18.856 67.7542 19.0622 66.6072 19.0622C64.8098 19.0622 63.4499 18.5801 62.5344 17.596C61.7242 16.7096 61.4341 15.5845 61.6654 14.256C61.6913 14.1096 61.7359 13.9727 61.7739 13.8216C62.1486 12.3251 63.0501 11.0673 64.4893 10.0745C65.9252 9.0818 67.5512 8.58099 69.3497 8.58099C70.4956 8.58099 71.4232 8.77556 72.1736 9.17837C72.9384 9.56822 73.7398 10.3003 74.5631 11.3506L75.8122 6.32727C74.193 5.5568 72.3661 5.18648 70.3273 5.18648ZM88.2214 5.18648C85.2074 5.18648 82.5943 5.97399 80.3742 7.54884C78.1639 9.14659 76.7292 11.2396 76.0839 13.8213C76.0459 13.9725 76.0066 14.108 75.9754 14.2557C75.4779 16.653 75.9166 18.6079 77.3058 20.0939C78.7819 21.6579 81.0662 22.4289 84.1486 22.4289C89.4022 22.4289 93.434 19.2225 93.8423 18.8719L91.5614 18.356C91.025 18.4798 88.1032 19.326 85.1804 19.0621C81.494 18.7308 80.6545 16.0308 80.8631 14.6903H95.6616L95.7974 14.2558L95.9061 13.7943C96.5795 11.1028 96.2471 8.98593 94.8743 7.46754C93.4882 5.936 91.266 5.18648 88.2214 5.18648ZM49.7179 5.64805C47.624 5.64805 45.5766 6.29532 43.5813 7.60317L39.1552 6.1098L37.1186 14.2557L35.082 22.4289H39.8882L41.8432 14.5546C41.8684 14.4536 41.8996 14.3471 41.9246 14.2557C42.4242 12.379 43.0944 11.0408 43.9069 10.2643C44.7779 9.4388 45.9879 9.04239 47.5725 9.04239C49.03 9.04239 49.9739 9.33886 50.3693 9.96553C50.781 10.5782 50.7723 11.6968 50.3693 13.3054L50.152 14.2557L48.0884 22.4289H52.8944L54.931 14.2557L55.3928 12.4094C55.9694 10.1079 55.8109 8.46027 54.9039 7.44037C53.8582 6.24543 52.1247 5.64805 49.7179 5.64805ZM111.058 5.64805C108.962 5.64805 106.918 6.29532 104.921 7.60317L100.495 6.1098L98.4582 14.2557L96.4218 22.4289H101.228L103.183 14.5546C103.209 14.4536 103.238 14.3471 103.264 14.2557C103.766 12.379 104.432 11.0408 105.247 10.2643C106.119 9.4388 107.325 9.04239 108.912 9.04239C110.369 9.04239 111.312 9.33886 111.709 9.96553C112.12 10.5782 112.112 11.6968 111.709 13.3054L111.465 14.2557L109.428 22.4289H114.234L116.271 14.2557L116.732 12.4094C117.309 10.1079 117.15 8.46027 116.244 7.44037C115.199 6.24543 113.462 5.64805 111.058 5.64805ZM25.7144 8.58064C28.2624 8.58064 29.6244 9.58207 29.7872 11.5947H20.2021C20.4736 11.1255 20.7887 10.7149 21.1798 10.3456C21.5675 9.97849 22.0051 9.65148 22.4832 9.39513C22.9741 9.12565 23.4878 8.9325 24.0309 8.79775C24.5801 8.65195 25.1461 8.57895 25.7144 8.58064ZM87.4613 8.58064C90.0093 8.58064 91.3734 9.58207 91.5341 11.5947H81.949C82.2228 11.1255 82.5388 10.7149 82.9265 10.3456C83.3165 9.97849 83.7575 9.65148 84.2299 9.39513C84.7252 9.12565 85.2347 8.9325 85.7778 8.79775C86.327 8.65205 86.893 8.57906 87.4613 8.58064ZM121.892 9.91121L120.806 14.2557L118.742 22.4289H123.521L125.585 14.2557L126.671 9.91121H121.892Z" fill="#006CB6"/>
</svg>
