<svg width="90" height="90" viewBox="0 0 90 90" fill="none" xmlns="http://www.w3.org/2000/svg">
<circle cx="45" cy="45" r="44" stroke="url(#paint0_linear_99_1521)" stroke-width="2"/>
<rect width="60" height="60" transform="translate(15 15)" fill="white"/>
<path d="M26.1002 58.5917C25.4378 59.3026 25.0772 60.2429 25.0943 61.2144C25.1115 62.1859 25.505 63.1128 26.1921 63.7999C26.8792 64.4869 27.8061 64.8805 28.7776 64.8976C29.7491 64.9148 30.6893 64.5541 31.4002 63.8917L43.7002 51.5917L38.4002 46.2917L26.1002 58.5917Z" fill="url(#paint1_linear_99_1521)"/>
<path d="M56.8331 35.8L62.1915 33.025L64.9998 27.6084L62.3831 24.9917L56.9665 27.8L54.1915 33.15L47.6748 39.675L50.3165 42.325L56.8331 35.8Z" fill="url(#paint2_linear_99_1521)"/>
<path d="M58.0081 50.0001H57.4998C56.6139 50.0051 55.7362 50.1688 54.9081 50.4834L39.5414 35.0751C39.8455 34.2507 40.0007 33.3788 39.9998 32.5001L39.9498 32.0001C39.8803 30.7827 39.5117 29.6013 38.8767 28.5604C38.2417 27.5194 37.3599 26.6511 36.3093 26.0323C35.2587 25.4134 34.0717 25.0632 32.8534 25.0125C31.6351 24.9618 30.4232 25.2123 29.3248 25.7417L34.3248 30.7417C34.576 30.9976 34.7693 31.3046 34.8914 31.6417C35.0309 32.023 35.0754 32.4324 35.0211 32.8347C34.9668 33.237 34.8154 33.62 34.5799 33.9507C34.3444 34.2813 34.032 34.5497 33.6696 34.7325C33.3071 34.9154 32.9056 35.0072 32.4998 35.0001C32.2139 34.9912 31.9318 34.9319 31.6664 34.8251C31.3316 34.7021 31.0254 34.5121 30.7664 34.2667L25.7664 29.2667C25.232 30.3649 24.977 31.5781 25.0241 32.7985C25.0712 34.0189 25.419 35.2088 26.0365 36.2625C26.654 37.3162 27.5222 38.2011 28.564 38.8386C29.6057 39.4761 30.7888 39.8464 32.0081 39.9167L32.4998 40.0001C33.3856 39.995 34.2633 39.8313 35.0914 39.5167L50.4998 54.8667C50.1745 55.7069 50.0051 56.5992 49.9998 57.5001L50.0498 58.0001C50.1883 59.8838 51.0324 61.6459 52.4135 62.9343C53.7946 64.2227 55.611 64.9426 57.4998 64.9501C58.6125 64.949 59.7102 64.6924 60.7081 64.2001L55.7081 59.2001C55.4743 58.9497 55.2929 58.655 55.1748 58.3334C55.0423 57.9589 55.001 57.5582 55.0543 57.1645C55.1076 56.7708 55.254 56.3955 55.4812 56.0697C55.7085 55.7438 56.0102 55.4768 56.3612 55.2908C56.7122 55.1048 57.1025 55.0052 57.4998 55.0001C57.7857 55.009 58.0678 55.0682 58.3331 55.1751C58.673 55.2875 58.9814 55.4788 59.2331 55.7334L64.2331 60.7334C64.7855 59.6332 65.0552 58.4128 65.0181 57.1823C64.981 55.9517 64.6382 54.7498 64.0206 53.6849C63.4029 52.6199 62.5299 51.7255 61.4803 51.0822C60.4306 50.4389 59.2374 50.067 58.0081 50.0001Z" fill="url(#paint3_linear_99_1521)"/>
<defs>
<linearGradient id="paint0_linear_99_1521" x1="-33.2308" y1="70.4348" x2="104.314" y2="69.6992" gradientUnits="userSpaceOnUse">
<stop stop-color="#EC74E7"/>
<stop offset="0.457222" stop-color="#8468F5"/>
</linearGradient>
<linearGradient id="paint1_linear_99_1521" x1="18.2237" y1="60.8533" x2="46.6594" y2="60.7013" gradientUnits="userSpaceOnUse">
<stop stop-color="#EC74E7"/>
<stop offset="0.457222" stop-color="#8468F5"/>
</linearGradient>
<linearGradient id="paint2_linear_99_1521" x1="41.2779" y1="38.5569" x2="67.7552" y2="38.4154" gradientUnits="userSpaceOnUse">
<stop stop-color="#EC74E7"/>
<stop offset="0.457222" stop-color="#8468F5"/>
</linearGradient>
<linearGradient id="paint3_linear_99_1521" x1="10.2482" y1="56.2666" x2="71.3837" y2="55.9392" gradientUnits="userSpaceOnUse">
<stop stop-color="#EC74E7"/>
<stop offset="0.457222" stop-color="#8468F5"/>
</linearGradient>
</defs>
</svg>
