<svg width="80" height="80" viewBox="0 0 80 80" fill="none" xmlns="http://www.w3.org/2000/svg">
<path d="M14.9124 10C11.1489 10 8.125 13.0239 8.125 16.7874V66.7827C8.125 70.5462 11.1489 73.5701 14.9124 73.5701H64.9077C68.6712 73.5701 71.6951 70.5462 71.6951 66.7827V16.7874C71.6951 13.0239 68.6712 10 64.9077 10H14.9124ZM17.5612 17.9049C17.9638 17.8859 18.2234 17.9876 18.2234 17.9876H33.4123C33.4123 17.9876 35.3989 18.7499 35.3989 20.5122C35.3989 22.2746 33.909 23.4507 33.909 23.4507H24.6797L31.0947 29.6587H38.9168V35.1632H36.6819C36.6657 35.1632 36.6566 35.163 36.6405 35.1632C34.5918 35.1889 32.9571 36.833 32.9571 38.888V40.8745H27.7009L27.6182 33.6732C27.6182 33.6272 21.824 27.6722 21.824 27.6722L21.7826 35.9495C21.7826 35.9495 20.5322 37.9361 18.5958 37.9361C16.6595 37.9361 15.616 35.784 15.616 35.784V20.8019C15.616 20.8019 15.3165 19.4514 16.1126 18.5671C16.132 18.5458 16.1748 18.5049 16.1954 18.4843C16.636 18.0437 17.1586 17.9239 17.5612 17.9049ZM46.325 18.0704C46.325 18.0704 61.2176 18.1409 61.2242 18.0704C61.2276 18.0355 62.6685 18.1249 63.2522 18.6084C63.9138 19.1565 64.1213 20.3881 64.1213 20.3881V35.5356C64.1213 35.5357 63.3591 37.5222 61.5967 37.5222C59.8343 37.5222 58.6583 36.0737 58.6583 36.0737V27.7963L51.9122 35.0804V40.8745H46.1595V38.888C46.1595 36.8168 44.5058 35.1632 42.4346 35.1632H40.6964V29.6587H48.146C48.4151 29.6587 48.6797 29.688 48.9324 29.7415L55.3887 23.4921L45.8697 23.4507C45.8697 23.4507 44.2556 22.5727 44.2557 20.6364C44.2557 19.88 44.5165 19.0618 44.9178 18.6498C45.5439 18.0072 46.325 18.0704 46.325 18.0704ZM27.7009 42.6128H32.9571V44.6407C32.9571 46.7119 34.6107 48.3655 36.6819 48.3655H38.9168V53.8286H31.4671C29.396 53.8286 27.7009 52.175 27.7009 50.1038V42.6128ZM46.1595 42.6128H51.9122V50.1038C51.9122 50.2265 51.8822 50.3567 51.8708 50.4763L58.4927 56.3118L58.6996 47.2481C58.6997 47.2481 59.619 45.7168 61.5553 45.7168C63.4916 45.7168 64.2869 47.6206 64.2869 47.6206L64.1627 62.8509C64.1627 62.8509 64.1334 64.2046 63.2522 65.0858C62.371 65.967 61.1828 65.5825 61.1828 65.5825H46.0353C46.0353 65.5825 44.0487 64.8202 44.0487 63.0579C44.0487 61.2955 45.4973 60.1194 45.4973 60.1194H55.3473L48.1874 53.8286H40.6964V48.3655H42.4346C44.5058 48.3656 46.1594 46.7119 46.1594 44.6407L46.1595 42.6128Z" fill="#EB8700"/>
</svg>
