<svg width="80" height="80" viewBox="0 0 80 80" fill="none" xmlns="http://www.w3.org/2000/svg">
<path d="M52.5045 7.79198C52.5045 5.59458 50.0442 5.59455 48.9507 5.86923C50.4815 4.66065 52.2767 4.95367 52.9145 5.3199L67.6979 12.5687C69.1065 13.2594 70.0001 14.6965 70.0001 16.2714V63.9578C70.0001 65.5538 69.0827 67.0062 67.6455 67.6858L53.7346 74.2634C52.7778 74.6754 50.7002 75.6917 48.9507 74.2634C51.1376 74.6754 52.3222 73.1189 52.5045 72.066V7.79198Z" fill="url(#paint0_linear_83_914)"/>
<path d="M49.128 5.82951C50.2886 5.60017 52.5044 5.70653 52.5044 7.79189V24.2061L7.68397 58.113C6.90055 58.7057 5.79801 58.6074 5.13072 57.8853L0.511331 52.8868C-0.21234 52.1038 -0.161706 50.878 0.624059 50.1579L48.9506 5.86913L49.128 5.82951Z" fill="url(#paint1_linear_83_914)"/>
<path d="M52.5044 55.9265L7.68397 22.0195C6.90054 21.4269 5.79801 21.5252 5.13072 22.2473L0.511331 27.2458C-0.212339 28.0288 -0.161706 29.2546 0.624059 29.9747L48.9506 74.2634C51.1376 74.6755 52.3222 73.1189 52.5044 72.066V55.9265Z" fill="url(#paint2_linear_83_914)"/>
<defs>
<linearGradient id="paint0_linear_83_914" x1="59.4754" y1="5" x2="59.4754" y2="75" gradientUnits="userSpaceOnUse">
<stop stop-color="#32B5F1"/>
<stop offset="1" stop-color="#2B9FED"/>
</linearGradient>
<linearGradient id="paint1_linear_83_914" x1="52.5044" y1="13.8347" x2="2.55426" y2="55.7626" gradientUnits="userSpaceOnUse">
<stop stop-color="#0F6FB3"/>
<stop offset="0.270551" stop-color="#1279B7"/>
<stop offset="0.421376" stop-color="#1176B5"/>
<stop offset="0.618197" stop-color="#0E69AC"/>
<stop offset="0.855344" stop-color="#0F70AF"/>
<stop offset="1" stop-color="#0F6DAD"/>
</linearGradient>
<linearGradient id="paint2_linear_83_914" x1="2.88804" y1="24.9592" x2="52.6978" y2="66.2016" gradientUnits="userSpaceOnUse">
<stop stop-color="#1791D2"/>
<stop offset="1" stop-color="#1173C5"/>
</linearGradient>
</defs>
</svg>
