<svg xmlns="http://www.w3.org/2000/svg" viewBox="0 0 497.6 496.68"><defs><style>.cls-1{fill:#9bb1c1;}.cls-2{fill:#c2e2bf;}.cls-3{fill:#010101;}.cls-4{fill:#040605;}.cls-5{fill:#040604;}.cls-6{fill:#fff;}.cls-7{fill:#333;}.cls-8{fill:#232323;}.cls-9{fill:#2b2b2b;}.cls-10{fill:#f3f2f2;}.cls-11{fill:#f3f2f1;}.cls-12{fill:#404241;}.cls-13{fill:#0b0b0b;}.cls-14{fill:#050505;}.cls-15{fill:#393a39;}.cls-16{fill:#030303;}.cls-17{fill:#060606;}.cls-18{fill:#dbdad9;}.cls-19{fill:#f2f1f1;}.cls-20{fill:#333332;}</style></defs><g id="Layer_2" data-name="Layer 2"><g id="Layer_1-2" data-name="Layer 1"><path class="cls-1" d="M248.6,496.68C110.84,496.07-.09,385.83,0,248.08.09,110.58,111.1-.35,249.5,0,386.92.35,498,110.9,497.6,249,497.25,386.09,386.6,496.25,248.6,496.68Z"/><path class="cls-2" d="M321.55,428.9l-145.56,0c-1.64-1.28-1.08-3-.85-4.6,2.82-20.32,7.09-40.26,15.8-59a112.91,112.91,0,0,1,15.35-23.84c2.31-2.82,4.91-3.54,8.37-2a16.43,16.43,0,0,0,8.65,1.74c-.54-2.39-2.27-2.3-3.58-2.72A28.5,28.5,0,0,1,213.2,336c-4.18-2.52-4.5-4.69-1.27-8.28,8.18-9.13,8.24-9.2,18.19-2,5.45,4,11.86,6.78,15.4,13.13,1.19,2.15,3,.27,4.2-.66,7-5.44,14.5-10,21.58-15.32,4.86-3.61,5.89-3.5,10.21.63,1.44,1.39,2.89,2.77,4.22,4.25,3.13,3.46,2.88,5.5-1,8a20.59,20.59,0,0,1-6,2.34c-1.52.41-3.39.21-4.34,2.44,2.53,1.44,4.81,0,7-.59,7-1.93,7.1-1.86,11.8,3.8,11.42,13.74,17.77,29.92,22.52,46.82a200.34,200.34,0,0,1,6.56,33.72C322.45,425.88,323.28,427.61,321.55,428.9Z"/><path class="cls-3" d="M321.55,428.9c-3.49-30.68-10.3-60.18-29.85-85.28-2.59-3.33-5.1-5.23-9.38-2.71-1.64,1-3.87.89-5.71,1.59-2.11.79-3.84.49-4.41-1.66-.68-2.6,1.73-2.86,3.4-3.22,3.56-.76,7.1-1.45,10.14-3.67,1.78-1.3,2.18-2.21.33-4.17-8.8-9.27-8.76-9.41-19-2.36-6,4.14-11.86,8.48-17.74,12.79-2.6,1.91-4.92,2.91-5.36-1.6-.2-2.05-1.64-2.83-2.92-3.75-5.89-4.28-11.9-8.4-17.76-12.71-1.92-1.42-3.1-1-4.55.62a61.33,61.33,0,0,1-6.72,6.67c-2.8,2.26-1.66,3.44.64,5,3,2,6.48,2.38,9.79,3.3,1.72.48,3.53.9,3.06,3s-2.32,2.47-4.36,1.83S217,342,215.41,341c-4.54-2.86-7-.43-9.68,2.88-13.06,16.26-20.16,35.17-24.78,55.18a203.72,203.72,0,0,0-5,29.79c-.46,1.79-1.27,3.17-3.45,2.42-2.46-.83-1.86-3-1.63-4.65,2.94-21,6.94-41.77,15.88-61.27,4.51-9.86,10-19.05,17.34-27.08,1-1.08,2.4-2.07,1.44-3.82-2-3.59,0-5.88,2.48-8.15q4.22-3.88,8.26-8c3.07-3.09,6.14-3.6,9.55-.51.65.59,1.37,1.58,2.58,1.11,1.16-6.64,1.13-6.51-5.31-7.85-25.63-5.33-44.36-19.24-54.14-44a4,4,0,0,0-3.47-2.83c-18.42-3.75-25.2-21.47-13.84-36.13,1-1.34,1.53-2.26.54-3.9-3.82-6.31-5.86-13.29-7.13-20.49-.29-1.65-.11-2.56-2.57-1.83-3,.89-3.09-2.35-3.52-4.2-2.65-11.19-.94-22.09,2.8-32.71a29.8,29.8,0,0,0,1.89-10.59c-.16-14.8,5-26.89,18.39-34.51,1.88-1.07,2.25-2.71,2.76-4.41,5.3-17.77,19.22-26.16,35.75-29.2,6.81-1.25,11.85-5.47,18.39-6.41,4.8-.69,9.48-1.69,14.33-.64,1.61.35,3.13.6,4.76-.45,11.56-7.5,24-7.73,36.87-4.25,4.72,1.27,9.19,3.37,14.46,1.35,2.76-1,4,2.09,3.14,4.12-1.46,3.65.81,3.33,2.94,3.58,9.86,1.19,19.13,4,27,10.25,1.58,1.24,4.14,2.19,3.19,5-.87,2.57-3.5,1.21-5.47,2.1,2.25,2.25,5,3.23,7.79,4.18,11.38,3.92,17.29,13.41,23.38,22.71a2.9,2.9,0,0,1-.09,3.71c-.9,1-1.92.83-3.15.35-1-.39-2.21-.2-3.92-.3,4.91,7.71,9.77,14.9,11.92,23.27,2.07,8,3.41,16.18,5.11,24.27.19.88.34,2-.37,2.27-4.59,1.75-2.72,5.51-2.74,8.59-.06,7.55-1.89,14.25-7.36,19.94-2.76,2.86-2.11,7.51-4,11s-1.57,6.41,1.07,10c8.59,11.77,1.27,29.5-13.56,32.8-3.84.86-5.18,2.44-6.62,5.73-9.46,21.48-26.07,34.63-48.61,40.61-1.6.42-3.22.78-4.85,1.07-6.21,1.14-6.22,1.13-5.2,8,8.77-4.37,8.77-4.37,16.11,2.87,1.9,1.87,3.72,3.83,5.72,5.57,1.54,1.35,2.57,3.15,1.74,4.8-1.58,3.13.18,4.91,1.91,6.93,14.63,17.09,22.06,37.52,27.1,59,2,8.67,3.27,17.53,4.84,26.31a24.44,24.44,0,0,1,.25,3c.1,1.53.15,3.25-1.61,3.76C323.22,431.93,322,430.75,321.55,428.9Z"/><path class="cls-4" d="M272.79,366.41c.51,7.74-1.09,15.48.73,23.28,1,4.22-2.24,6.17-6.29,6.53s-5.72-1.49-6.56-5.53c-2.84-13.7-1.21-27.43-.82-41.15,0-1.47.65-2.92.73-4.39.21-3.75,3-4.82,5.82-4.83s4.88,1.69,5.57,4.73C273.58,352.13,272.45,359.29,272.79,366.41Z"/><path class="cls-5" d="M240.61,364.9A105.19,105.19,0,0,1,239,390.62c-.76,3.92-2.23,5.88-6.5,5.56s-7.1-2.31-6.37-6.43c2.21-12.4-.15-24.82.74-37.2.18-2.47.47-4.95.88-7.39a5.43,5.43,0,0,1,6-4.85,5.37,5.37,0,0,1,5.42,4.8C240.33,351.68,239.82,358.33,240.61,364.9Z"/><path class="cls-6" d="M256.58,148.61c-.8,3,.17,5.09,3.32,3.5,3.53-1.78,6-2.57,10.46-1.28,2.86.84,6.06,3.6,10.12,2.35,3.53-1.09,7.59-.42,11.4-.68,6.19-.43,11.5.75,14.42,7a5.58,5.58,0,0,0,1.59,1.9c13.25,10.54,14.22,26.44,17.83,41.11,2.25,9.12.74,18.52,1.09,27.78.05,1.36-1,3.11.83,4s3.17.1,4.6-.91c7.59-5.34,12.33-3.18,13.75,6.24,1.61,10.67-5.4,19.17-16.45,19.59-2.66.1-4,1.12-4.74,3.4-8.45,24.8-26.59,38.22-51.55,43.52-9.49,2-9.6,1.9-9.7,11.67,0,4.05-.84,7.21-4.9,9.31-3.49,1.81-6.37,6-9.8,6.39s-6.07-4.71-9.63-6.28c-5.55-2.46-5.16-7-5.14-11.65,0-8,.4-7.6-7-8.83-23.32-3.91-41.18-15.73-51.84-37.3a23.31,23.31,0,0,1-1.62-4.63c-1-3.75-2.67-5.61-7.2-5.71a14.58,14.58,0,0,1-13.52-9.44c-2.31-5.57-2.48-11.34,1.05-16.61,2.63-3.92,5.56-4,8.73-.41.66.75,1.28,1.54,2,2.23,1.1,1.06,2.34,2,4,1.41,2-.69,1.46-2.45,1.28-3.82-2.78-21,3.56-40.36,11-59.35,4-10.14,11.3-17.74,22.86-19.75,5.21-.91,10.41-2.16,15.78-1.16,1.33.24,3.25.2,3.57-1.06,1-4.05,3.45-2.82,5.45-1.49,4.71,3.12,10.11-.66,14.74,1.72,3.44,1.77,6.2,1.36,8.48-1.8C253.3,148.72,254.55,146.82,256.58,148.61Z"/><path class="cls-7" d="M256.58,148.61l-4.74,1c8.6-10.47,20.26-15.2,33.21-16.94a54,54,0,0,1,20.14.73c1.8.44,3.82.36,4.42-2,.68-2.73-1.64-3.08-3.28-3.37-21-3.72-39.94.18-55.66,15.28-3.08,3-4.81,4.44-9.09,1-6.12-4.85-13.85-7.11-21.54-8.67-14-2.83-21.85-11.48-21.21-23.91.71-13.93,11.8-26.14,24.57-27.09a24.87,24.87,0,0,0,3.43-.5c2.4-.55,4.65-1.07,3.4,2.81-.52,1.6.65,2.5,1.83,3.15,1.36.75,2.19-.34,2.9-1.21,10.31-12.61,23.8-12.71,38-9.56,3,.67,5.91,1.87,9.47,3-14.35,1.41-27,5.24-36.63,15.77-5.92,6.47-10.47,13.74-11.51,22.64a18,18,0,0,0,1.7,10.06c.87,1.77,2.51,2.12,4.25,1.33,1.29-.59,1.33-1.63.84-2.93-4.16-11,1.53-19.37,7.91-27.11,6.62-8,16.14-11.64,26.08-13.23A66.51,66.51,0,0,1,312,93.33c1,.44,2,1,3.36,1.74-2.13.88-4.75.69-4.95,3.16-.16,1.92,1.51,3.28,2.95,4.4,3.4,2.66,6.83,5.46,11,6.68,8,2.34,13.19,8,18,14.29,1.49,2,1.45,2.92-1.25,3l-3,0c-1.43,0-2.67.41-3.08,2-.36,1.35.62,2,1.44,2.89,10.58,11.26,16.65,24.49,17.33,40,.39,1.06-.1,1.22-1,1-.94-1.68-2.3-2.7-4-1.27s-1.27,3.53-.08,5c4,4.87,4.34,10.5,4.12,16.42-.2,5.39-1.72,10.15-5.69,13.85-2.52,2.36-2.81,5.47-3.75,8.45-.46,1.45-.22,4.58-3.65,2.23-2.18-1.49-3.11,1-4,2.44-1.16,1.92-1.2,4.49-4.23,6.26,1.84-17.48-1.81-33.73-7.41-49.78,3.1-.45,7,3.43,8-1.06,1-4-3.81-3.07-6-4.3-5.94-3.3-10.05-8.54-14.84-13.25,1.29-1.2,1.84.1,2.5.48,1.4.8,2.65.67,3.47-.65a2.66,2.66,0,0,0-.79-3.89c-3.67-2.84-8-3.8-12.38-4.83-6.36-1.5-12.85-.67-19.33-1.73,2.71-.42,5.41-1,8.14-1.2,1.91-.17,3.41-.66,3.26-2.78-.13-1.82-1.59-2.17-3.27-2.29-5.46-.37-10.48,1.31-15.51,3-1.53.52-2.66,1.32-3.47-1.3-.88-2.84-3.59-1.93-5.46-.87C264.4,143.61,260.52,146.17,256.58,148.61Z"/><path class="cls-7" d="M216.8,141.58l-15,0c-1.38,0-2.78.08-2.89,1.93a2.54,2.54,0,0,0,2.63,3c2.4.12,4.81,0,7.23.39-8.41,1.9-16.94,3-25,6.18-3,1.2-6.27,2.09-2.24,6,1.88,1.81-.39,2.65-1.29,3.42-3,2.57-6.23,4.93-9.37,7.37-1.48,1.15-4.17,1.91-2.47,4.46s3.78.91,6-.29c-4.73,16.47-10.95,32.33-10.75,50.29-2.66-2.26-3.25-7-7.83-4.72-.66.33-1.51-2-1.91-3.2-2.27-6.92-4.36-13.88-4.17-21.31.08-2.86-.13-5.88-4.45-3.6-3,1.58-2.36-.86-2.48-2.31-.61-7.25,1.07-14.3,3.46-20.91,1.93-5.33,2.31-10.54,2.6-16,.53-9.87,3.52-18.74,11.85-25.11,2.29-1.75,3.92-3,5.82.47.7,1.25,2.47,2.53,4.26,1.26a2.47,2.47,0,0,0,.58-3.58c-3.9-4.39-1.66-8.8.15-12.81C177,100.32,187.81,95.25,200.78,91c-6.94,12-10.2,23.65-3.78,35.58,4.52,8.4,12.46,12.5,21.79,13.94C218.91,142.44,217.91,142.11,216.8,141.58Z"/><path class="cls-8" d="M216.8,141.58a2.12,2.12,0,0,0,2-1l8,2.09C223.46,142.29,220,143.26,216.8,141.58Z"/><path class="cls-9" d="M352.79,172.45l1-1a2.55,2.55,0,0,1,.84,2.94C353.2,174.49,353.28,173.2,352.79,172.45Z"/><path class="cls-10" d="M267.83,368c.49,5.91-1.49,13.41.7,20.78.31,1,.19,2-1.12,2.29-2,.47-1.43-1-1.69-2.06-3.35-13.47-.8-27.07-.93-40.61,0-1.18,0-2.67,1.56-2.58s1.48,1.54,1.48,2.74Z"/><path class="cls-11" d="M234.84,364.53c.94,8.27,1.31,16.56-.89,24.69-.24.91.1,2.12-1.51,1.82-1.27-.24-1.43-1.06-1.24-2.21,2-12.23-.06-24.53.56-36.79.06-1.32,0-2.66.08-4s.41-2.47,1.79-2.35c1.16.1,1.21,1.37,1.21,2.4C234.83,353.58,234.84,359.05,234.84,364.53Z"/><path class="cls-12" d="M292.76,213.51c3.56,2.08,7.4,3.6,10.58,6.38a27.42,27.42,0,0,1,7.13,32.52c-5,10.69-17.16,17.3-28.58,15.46-12.8-2.06-22-11.45-23.19-24.22-.36-3.73-1.48-5.64-5.51-5.84-3-.15-6,0-8.93.05-3.81.06-5,1.79-5.29,5.32-1.25,13.42-10.42,22.79-23.82,24.72-11.59,1.66-23.64-5.36-28.45-16.59-4.64-10.81-1.33-24.31,7.71-31.47,15.3-12.12,36.3-6.6,43.14,11.55,1,2.75,2.3,3.29,4.69,2.79a32.34,32.34,0,0,1,13.36,0c2.29.48,3.39,0,4.34-2.49,4.39-11.79,14.25-18.29,26.87-18.21A11.23,11.23,0,0,0,292.76,213.51Z"/><path class="cls-13" d="M222,271.48c17.89,4,35.51,3.77,53.62.21,1,3-1,5.35-3.38,7.37-11.94,10.12-35.44,9.83-47.15-.47C222.7,276.52,221,274.27,222,271.48Z"/><path class="cls-14" d="M276.57,203.47c-2.16,0-4.31,0-6.47,0-1.2,0-2.43.06-3-1.24s.49-2.23,1.24-3c3.08-3.25,7.17-4.71,11.34-5.69,4.81-1.13,9.74-1.76,14.58-2.74,8.46-1.72,14.35,2.27,19.3,8.45.69.88,1.63,1.72.75,3.05a2.3,2.3,0,0,1-2.59.92C300,201.44,288.3,202.59,276.57,203.47Z"/><path class="cls-14" d="M222,203.46c-12.06-.78-24.12-2.14-36.18-.19a2.48,2.48,0,0,1-2.58-1.07c-.82-1.08,0-1.83.57-2.59,4-5.31,8.8-9.57,16-9.08,8.09.55,16.07,1.78,23.63,4.92a14.74,14.74,0,0,1,5.39,3.43c.84.92,2.28,1.73,1.56,3.3s-2.11,1.33-3.46,1.29C225.33,203.42,223.67,203.46,222,203.46Z"/><path class="cls-15" d="M292.76,213.51a4.85,4.85,0,0,1-5.95-.06C288.81,212.41,290.78,213,292.76,213.51Z"/><path class="cls-16" d="M220.67,114.07c1.11-5.5,1.73-10.95,4-16,.82-1.83,2-4,4.37-3.11,3.09,1.25,1.13,3.52.42,5.44-3.76,10.1-4.33,20,1.93,29.43,1.05,1.59,2,3.37-.21,4.68s-3.58-.45-4.54-1.86C222.82,127,221.77,120.49,220.67,114.07Z"/><path class="cls-6" d="M191.84,229.26c6.25-10.21,17.36-14.28,28.28-10.34,10.45,3.77,16.37,14.13,14.76,25.82-1.42,10.24-10.78,18.62-21.64,19.39s-21.16-6.77-23.87-17.85c-1.34-5.46-1.57-11.1,2.43-15.91,4.25,1.42,7.59,3.34,8,8.66.28,3.51,3.49,5.09,6.77,5.7,5.22,1,9.27-2.94,11-10.41,1-4.15-1.47-7.85-6.25-9.14-5.14-1.4-9.82-.05-14.29,2.58C195.49,228.69,194.15,230.77,191.84,229.26Z"/><path class="cls-6" d="M305.71,230.32c5,6.7,4.19,17.31-1.92,25.11-8.18,10.46-24.26,11.53-34.1,2.26a23.22,23.22,0,0,1,.57-34.4,22.9,22.9,0,0,1,33.48,3.12c.31,1-.38,1.26-1.13,1.47-2.24,0-4-1.41-6.09-2-3.38-1-6.76-1.8-10.26-.75-3.2,1-6.1,2.79-6.46,6.17a13,13,0,0,0,5,11.85c2.83,2.26,6.1,2.3,9.35.55,1.84-1,3.56-2.38,3.68-4.41.28-4.83,3-7.33,7.24-8.73Z"/><path class="cls-17" d="M191.84,229.26c2.12.67,2.84-1.38,4.11-2.22,7.7-5.13,16.76-4.83,21.8.58,4.44,4.79.41,8.93-1,13-1.51,4.22-5.48,6.06-10,5.57-4.31-.46-7.67-2.81-8.35-7.18-.56-3.53-1-6.27-5.44-6.15-1.06,0-1.12-1.44-1.11-2.45C191.82,230,191.83,229.63,191.84,229.26Z"/><path class="cls-18" d="M302.63,227.41l1.11-1c1.19,1,2.55,2,2,3.91l.12,0C303.48,230.75,302.72,229.45,302.63,227.41Z"/><path class="cls-19" d="M264.18,277.8c-10.22,5.78-20.54,5.92-30.86,0Z"/><path class="cls-7" d="M305.87,198.18h-25C289.14,196,297.42,192.4,305.87,198.18Z"/><path class="cls-20" d="M216.6,198.3H191.89C200.08,191.87,208.4,196.75,216.6,198.3Z"/><path class="cls-17" d="M302.63,227.41c.84,1.21,1.62,2.49,3.2,2.89,0,1-.06,2.55-1,2.49-4.91-.25-4.89,3.1-5.6,6.52-1,4.84-6.72,7.91-11.58,6.76-4.71-1.12-10.58-9.79-9.9-14.62.55-3.89,6.5-7.93,11.86-8.11C294.42,223.17,298.5,225.34,302.63,227.41Z"/></g></g></svg>